<svg width="54" height="55" viewBox="0 0 54 55" fill="none" xmlns="http://www.w3.org/2000/svg">
<g clip-path="url(#clip0)">
<path d="M15.2609 21.416H10.5652C9.91718 21.416 9.39124 21.942 9.39124 22.59V31.9812C9.39124 32.6292 9.91718 33.1552 10.5652 33.1552C11.2132 33.1552 11.7391 32.6292 11.7391 31.9812V23.7638H15.2609C15.9089 23.7638 16.4348 23.2379 16.4348 22.5899C16.4348 21.9419 15.9089 21.416 15.2609 21.416Z" fill="black"/>
<path d="M12.913 26.1118H10.5652C9.91718 26.1118 9.39124 26.6378 9.39124 27.2858C9.39124 27.9338 9.91718 28.4596 10.5652 28.4596H12.913C13.561 28.4596 14.0869 27.9337 14.0869 27.2857C14.0869 26.6377 13.561 26.1118 12.913 26.1118Z" fill="black"/>
<path d="M26.9999 0.285645C12.1125 0.285645 0 12.3981 0 27.2856C0 42.1731 12.1125 54.2855 26.9999 54.2855C41.8874 54.2855 53.9999 42.1731 53.9999 27.2856C53.9999 12.3981 41.8875 0.285645 26.9999 0.285645ZM26.9999 51.9377C13.406 51.9377 2.34779 40.8795 2.34779 27.2856C2.34779 13.6917 13.406 2.63343 26.9999 2.63343C40.5938 2.63343 51.6521 13.6917 51.6521 27.2856C51.6521 40.8795 40.5938 51.9377 26.9999 51.9377Z" fill="black"/>
<path d="M42.5638 14.8116C38.7486 10.0572 33.0763 7.3291 27.0001 7.3291C20.9239 7.3291 15.2515 10.0572 11.4363 14.8116C11.0301 15.3164 11.11 16.056 11.6171 16.4621C12.1219 16.8683 12.8615 16.7884 13.2653 16.2812C16.6344 12.0833 21.64 9.67678 27.0001 9.67678C32.3601 9.67678 37.3657 12.0833 40.7325 16.2812C40.965 16.57 41.3054 16.7202 41.6482 16.7202C41.9088 16.7202 42.1671 16.6357 42.383 16.462C42.8901 16.056 42.97 15.3164 42.5638 14.8116Z" fill="black"/>
<path d="M41.4249 39.3465C40.9601 38.9027 40.2135 38.9216 39.7674 39.391C36.3983 42.9386 31.8646 44.8943 26.9999 44.8943C22.1352 44.8943 17.6016 42.9385 14.2348 39.391C13.7911 38.9168 13.0445 38.9027 12.5773 39.3465C12.1031 39.7925 12.0866 40.5368 12.5327 41.0064C16.348 45.0282 21.485 47.2422 27 47.2422C32.515 47.2422 37.6521 45.0282 41.4696 41.0064C41.9157 40.5368 41.8968 39.7925 41.4249 39.3465Z" fill="black"/>
<path d="M22.7597 28.429C24.4877 28.2059 25.8259 26.7245 25.8259 24.9378C25.8259 22.9961 24.2459 21.416 22.3042 21.416H19.9564C19.3084 21.416 18.7825 21.942 18.7825 22.59V27.2762C18.7825 27.2809 18.7825 27.288 18.7825 27.2926V31.9812C18.7825 32.6292 19.3084 33.1552 19.9564 33.1552C20.6044 33.1552 21.1304 32.6292 21.1304 31.9812V30.1194L23.821 32.8124C24.0511 33.0401 24.3515 33.1552 24.6521 33.1552C24.9527 33.1552 25.2531 33.0402 25.4809 32.81C25.9387 32.3522 25.9387 31.6079 25.4809 31.1501L22.7597 28.429ZM21.1304 26.1117V23.7639H22.3043C22.95 23.7639 23.4783 24.2899 23.4783 24.9379C23.4783 25.5859 22.95 26.1118 22.3043 26.1118H21.1304V26.1117Z" fill="black"/>
<path d="M34.0433 30.8073H30.5216V23.7638H34.0433C34.6913 23.7638 35.2173 23.2379 35.2173 22.5899C35.2173 21.9419 34.6913 21.416 34.0433 21.416H29.3477C28.6997 21.416 28.1737 21.942 28.1737 22.59V31.9812C28.1737 32.6292 28.6997 33.1552 29.3477 33.1552H34.0433C34.6913 33.1552 35.2173 32.6292 35.2173 31.9812C35.2173 31.3332 34.6913 30.8073 34.0433 30.8073Z" fill="black"/>
<path d="M31.6957 26.1118H29.3479C28.6999 26.1118 28.174 26.6378 28.174 27.2858C28.174 27.9338 28.6999 28.4596 29.3479 28.4596H31.6957C32.3437 28.4596 32.8696 27.9337 32.8696 27.2857C32.8696 26.6377 32.3437 26.1118 31.6957 26.1118Z" fill="black"/>
<path d="M43.4348 30.8073H39.9131V23.7638H43.4348C44.0828 23.7638 44.6088 23.2379 44.6088 22.5899C44.6088 21.9419 44.0828 21.416 43.4348 21.416H38.7391C38.0911 21.416 37.5652 21.942 37.5652 22.59V31.9812C37.5652 32.6292 38.0911 33.1552 38.7391 33.1552H43.4348C44.0828 33.1552 44.6088 32.6292 44.6088 31.9812C44.6088 31.3332 44.0828 30.8073 43.4348 30.8073Z" fill="black"/>
<path d="M41.0869 26.1118H38.7391C38.0911 26.1118 37.5652 26.6378 37.5652 27.2858C37.5652 27.9338 38.0911 28.4596 38.7391 28.4596H41.0869C41.7349 28.4596 42.2609 27.9337 42.2609 27.2857C42.2609 26.6377 41.7349 26.1118 41.0869 26.1118Z" fill="black"/>
</g>
<defs>
<clipPath id="clip0">
<rect width="54" height="54" fill="white" transform="translate(0 0.285645)"/>
</clipPath>
</defs>
</svg>
