<svg width="54" height="55" viewBox="0 0 54 55" fill="none" xmlns="http://www.w3.org/2000/svg">
<path d="M37.2032 31.0272H9.36333L33.4714 15.699C33.5415 15.6544 33.6022 15.5964 33.6499 15.5284C33.6977 15.4603 33.7315 15.3835 33.7496 15.3024C33.7677 15.2213 33.7696 15.1374 33.7552 15.0555C33.7408 14.9736 33.7105 14.8954 33.6659 14.8253L31.2773 11.0687C30.7326 10.214 29.8711 9.6103 28.8818 9.39003C27.8925 9.16977 26.8563 9.35092 26.0004 9.89375L22.608 12.0507L22.8767 10.7649C22.9827 10.3001 22.9957 9.81885 22.9151 9.34894C22.8345 8.87903 22.6618 8.42967 22.407 8.0267C22.1522 7.62372 21.8202 7.27506 21.4303 7.00076C21.0403 6.72645 20.6 6.5319 20.1346 6.42829C19.6692 6.32468 19.188 6.31404 18.7185 6.39699C18.2489 6.47995 17.8005 6.65485 17.3988 6.91167C16.9971 7.16848 16.6501 7.50213 16.3777 7.89346C16.1053 8.28478 15.913 8.72607 15.8117 9.19196L14.0493 17.1078L8.14822 15.7943C7.26819 15.5982 6.34664 15.7376 5.564 16.1852C4.78136 16.6329 4.194 17.3566 3.91691 18.2146C3.63983 19.0726 3.69297 20.0031 4.06595 20.8239C4.43892 21.6448 5.10486 22.2969 5.93338 22.6525L2.29913 24.9633C1.44449 25.5081 0.840807 26.3695 0.620542 27.3588C0.400277 28.3481 0.581414 29.3843 1.12421 30.2402L3.51276 33.9968C3.55734 34.067 3.6153 34.1277 3.68333 34.1754C3.75136 34.2231 3.82813 34.257 3.90926 34.2751C3.99038 34.2932 4.07427 34.2951 4.15613 34.2807C4.23799 34.2664 4.31623 34.236 4.38636 34.1914L6.60964 32.7782V48.7976C6.61079 49.8111 7.01392 50.7828 7.7306 51.4994C8.44727 52.216 9.41896 52.6191 10.4325 52.6202H34.0136C35.0271 52.6191 35.9987 52.216 36.7153 51.4993C37.4319 50.7827 37.8351 49.8111 37.8362 48.7976V31.66C37.8362 31.5769 37.8198 31.4945 37.788 31.4178C37.7562 31.341 37.7096 31.2712 37.6508 31.2124C37.592 31.1537 37.5222 31.1071 37.4454 31.0753C37.3686 31.0435 37.2863 31.0271 37.2032 31.0272ZM26.6795 10.9619C27.0877 10.7009 27.562 10.5621 28.0465 10.5618C28.2351 10.5619 28.4231 10.5827 28.6072 10.6237C28.9352 10.6959 29.2458 10.8324 29.5208 11.0253C29.7958 11.2182 30.0298 11.4638 30.2092 11.7478L32.2583 14.9704L22.2915 21.3076L18.8705 15.9272L26.6795 10.9619ZM17.047 9.46713C17.1838 8.85811 17.5568 8.32834 18.0841 7.99437C18.6114 7.6604 19.2498 7.54958 19.8588 7.68629C20.4679 7.82301 20.9976 8.19605 21.3316 8.72337C21.6656 9.25068 21.7764 9.88907 21.6397 10.4981L21.1201 12.9834L15.4599 16.5956L17.047 9.46713ZM17.8022 16.6063L21.2232 21.9867L15.4477 25.6587L12.0268 20.2783L17.8022 16.6063ZM5.37576 20.5897C5.126 20.1969 4.99832 19.7388 5.00887 19.2735C5.01943 18.8081 5.16775 18.3563 5.43507 17.9753C5.70239 17.5942 6.07671 17.301 6.51068 17.1327C6.94466 16.9644 7.41881 16.9285 7.87316 17.0297L12.9868 18.1681L7.31027 21.7265L6.85022 21.624C6.54827 21.5576 6.26248 21.432 6.0094 21.2545C5.75631 21.077 5.54094 20.851 5.37576 20.5897ZM4.24145 32.7838L2.19251 29.5611C1.82942 28.9887 1.70824 28.2955 1.85554 27.6338C2.00284 26.9721 2.4066 26.3958 2.97825 26.0314L10.9588 20.9574L14.3796 26.3378L4.24145 32.7838ZM16.5131 51.3546H10.4325C9.75455 51.3538 9.10462 51.0842 8.62527 50.6048C8.14591 50.1254 7.87626 49.4755 7.87548 48.7976V32.2928H16.5134L16.5131 51.3546ZM24.5565 51.3546H17.7787V32.2928H24.5565V51.3546ZM36.5704 48.7976C36.5696 49.4755 36.3 50.1254 35.8206 50.6047C35.3413 51.0841 34.6915 51.3537 34.0136 51.3546H25.8221V32.2928H36.5704V48.7976Z" fill="black"/>
<path d="M44.2793 25.2787L44.582 23.5137C44.6019 23.3974 44.5889 23.2778 44.5444 23.1685C44.4999 23.0591 44.4258 22.9644 44.3303 22.895C44.2348 22.8256 44.1218 22.7843 44.0041 22.7758C43.8864 22.7672 43.7686 22.7918 43.6641 22.8466L42.0791 23.6798L40.494 22.8466C40.3895 22.7917 40.2717 22.7671 40.1539 22.7756C40.0361 22.7841 39.9231 22.8254 39.8276 22.8948C39.732 22.9642 39.6578 23.0589 39.6133 23.1683C39.5688 23.2777 39.5558 23.3973 39.5758 23.5137L39.8785 25.2787L38.5962 26.5285C38.5116 26.611 38.4518 26.7154 38.4235 26.8301C38.3952 26.9447 38.3995 27.065 38.436 27.1773C38.4725 27.2896 38.5397 27.3895 38.63 27.4656C38.7202 27.5417 38.83 27.591 38.9469 27.608L40.7188 27.8656L41.5113 29.4713C41.5635 29.5773 41.6444 29.6664 41.7447 29.7288C41.8449 29.7912 41.9607 29.8242 42.0788 29.8242C42.1969 29.8242 42.3126 29.7912 42.4129 29.7288C42.5132 29.6664 42.5941 29.5773 42.6463 29.4713L43.4387 27.8656L45.2106 27.608C45.3275 27.591 45.4372 27.5417 45.5275 27.4656C45.6178 27.3895 45.685 27.2896 45.7215 27.1773C45.758 27.065 45.7623 26.9447 45.734 26.8301C45.7057 26.7154 45.6459 26.611 45.5613 26.5285L44.2793 25.2787ZM42.9275 26.6604C42.826 26.6751 42.7295 26.7143 42.6465 26.7746C42.5635 26.8349 42.4964 26.9145 42.451 27.0065L42.0788 27.7608L41.7065 27.0065C41.6611 26.9145 41.594 26.835 41.511 26.7747C41.428 26.7144 41.3316 26.6751 41.2301 26.6604L40.3975 26.5394L41 25.9523C41.0734 25.8807 41.1284 25.7922 41.1601 25.6947C41.1918 25.5971 41.1993 25.4933 41.182 25.3921L41.0397 24.5629L41.7843 24.9543C41.8751 25.0021 41.9762 25.0271 42.0788 25.0271C42.1814 25.0271 42.2825 25.0021 42.3733 24.9543L43.1178 24.5629L42.9756 25.3921C42.9582 25.4932 42.9657 25.5971 42.9974 25.6947C43.0291 25.7922 43.0841 25.8806 43.1575 25.9523L43.76 26.5394L42.9275 26.6604Z" fill="black"/>
<path d="M51.5572 16.5596L49.8169 16.1367L49.1787 14.4636C49.1367 14.3533 49.0646 14.2569 48.9706 14.1854C48.8766 14.1138 48.7645 14.0701 48.6469 14.059C48.5294 14.0479 48.411 14.0699 48.3053 14.1225C48.1996 14.1752 48.1107 14.2563 48.0488 14.3569L47.1089 15.8812L45.3205 15.9712C45.2026 15.9771 45.0887 16.0159 44.9916 16.0832C44.8946 16.1505 44.8184 16.2436 44.7715 16.352C44.7246 16.4603 44.709 16.5796 44.7264 16.6964C44.7438 16.8132 44.7935 16.9228 44.8699 17.0128L46.0291 18.3777L45.5622 20.1063C45.5314 20.2203 45.5331 20.3406 45.5671 20.4537C45.6011 20.5668 45.6661 20.6681 45.7547 20.7461C45.8433 20.8242 45.952 20.8759 46.0684 20.8955C46.1849 20.915 46.3045 20.9016 46.4137 20.8567L48.0695 20.176L49.57 21.1544C49.6689 21.2189 49.7839 21.2545 49.9019 21.2571C50.02 21.2597 50.1364 21.2292 50.238 21.1691C50.3396 21.1089 50.4224 21.0216 50.477 20.9169C50.5315 20.8122 50.5557 20.6943 50.5468 20.5766L50.4113 18.791L51.8048 17.667C51.8967 17.5929 51.966 17.4946 52.0049 17.3831C52.0439 17.2717 52.0508 17.1516 52.0251 17.0363C51.9993 16.9211 51.9419 16.8154 51.8592 16.7312C51.7765 16.6469 51.6719 16.5875 51.5572 16.5596ZM49.3575 18.0151C49.2777 18.0795 49.2147 18.1623 49.1739 18.2565C49.1332 18.3506 49.116 18.4533 49.1238 18.5556L49.1871 19.3944L48.4824 18.9346C48.3965 18.8786 48.2983 18.8443 48.1961 18.8346C48.094 18.825 47.991 18.8404 47.8961 18.8794L47.1182 19.1991L47.3376 18.387C47.3643 18.288 47.3666 18.1839 47.3442 18.0838C47.3218 17.9837 47.2754 17.8905 47.209 17.8123L46.6645 17.1712L47.5046 17.129C47.6071 17.1239 47.7068 17.0939 47.7951 17.0417C47.8835 16.9895 47.9578 16.9166 48.0116 16.8293L48.453 16.1132L48.7528 16.8992C48.7893 16.995 48.8487 17.0805 48.9256 17.1484C49.0026 17.2162 49.0949 17.2643 49.1946 17.2885L50.0121 17.4872L49.3575 18.0151Z" fill="black"/>
<path d="M42.2506 6.2723L41.7835 8.00093C41.7526 8.11493 41.7543 8.23528 41.7883 8.34837C41.8223 8.46146 41.8873 8.56278 41.9759 8.64087C42.0645 8.71896 42.1732 8.7707 42.2896 8.79024C42.4061 8.80978 42.5257 8.79634 42.6349 8.75145L44.2908 8.07065L45.7907 9.04929C45.8896 9.11381 46.0045 9.14937 46.1226 9.15195C46.2406 9.15453 46.3571 9.12403 46.4587 9.0639C46.5603 9.00376 46.6431 8.9164 46.6976 8.81168C46.7522 8.70696 46.7764 8.58906 46.7674 8.47132L46.6319 6.68574L48.0258 5.56165C48.1176 5.48754 48.187 5.3892 48.2259 5.27776C48.2648 5.16631 48.2718 5.0462 48.246 4.93099C48.2203 4.81579 48.1628 4.71009 48.0801 4.62584C47.9974 4.54159 47.8928 4.48214 47.7781 4.45423L46.0379 4.0314L45.3998 2.35825C45.3577 2.24791 45.2856 2.15154 45.1916 2.08005C45.0976 2.00857 44.9855 1.9648 44.8679 1.95372C44.7503 1.94264 44.632 1.96467 44.5263 2.01734C44.4206 2.07 44.3318 2.15119 44.2698 2.25172L43.3301 3.77596L41.5415 3.86582C41.4236 3.87173 41.3097 3.91053 41.2127 3.97781C41.1156 4.04509 41.0393 4.13818 40.9925 4.24655C40.9456 4.35492 40.9299 4.47425 40.9473 4.59104C40.9647 4.70783 41.0144 4.81742 41.0909 4.90743L42.2506 6.2723ZM43.7262 5.02313C43.8287 5.01798 43.9284 4.988 44.0167 4.93576C44.105 4.88353 44.1792 4.8106 44.2331 4.72328L44.6746 4.00725L44.9743 4.79321C45.0109 4.88906 45.0702 4.97459 45.1472 5.04243C45.2241 5.11026 45.3165 5.15837 45.4161 5.1826L46.2335 5.38119L45.5788 5.90917C45.4989 5.97356 45.4359 6.05641 45.3951 6.15057C45.3544 6.24474 45.3372 6.34739 45.3449 6.4497L45.4082 7.2886L44.7036 6.82886C44.6177 6.77281 44.5194 6.7385 44.4173 6.72887C44.3151 6.71924 44.2122 6.73459 44.1173 6.77359L43.3394 7.09337L43.5587 6.28126C43.5855 6.18221 43.5878 6.07813 43.5654 5.97799C43.543 5.87786 43.4966 5.78467 43.4302 5.70646L42.8856 5.06521L43.7262 5.02313Z" fill="black"/>
<path d="M30.77 25.3697C29.3413 26.2689 28.6433 27.3584 28.6143 27.4043C28.5244 27.5461 28.4945 27.7177 28.5312 27.8815C28.5678 28.0453 28.668 28.1878 28.8098 28.2777C28.9515 28.3676 29.1231 28.3975 29.2869 28.3608C29.4507 28.3241 29.5932 28.2239 29.6831 28.0822C29.778 27.9345 32.0676 24.4736 37.0511 25.7063C37.2134 25.7449 37.3844 25.7178 37.5268 25.631C37.6693 25.5442 37.7717 25.4046 37.8118 25.2427C37.8518 25.0807 37.8264 24.9095 37.7409 24.7663C37.6554 24.6231 37.5168 24.5194 37.3552 24.4778C34.289 23.7192 32.0817 24.544 30.77 25.3697Z" fill="black"/>
<path d="M42.7784 18.6682C42.9334 18.7325 43.1076 18.7326 43.2627 18.6685C43.4178 18.6044 43.5411 18.4812 43.6055 18.3262C43.6698 18.1712 43.6699 17.997 43.6058 17.8419C43.5417 17.6868 43.4186 17.5635 43.2635 17.4991C38.7585 15.6295 35.4843 17.0296 33.5309 18.5336C32.2349 19.5414 31.1623 20.8072 30.3807 22.2509C30.3438 22.3254 30.3218 22.4063 30.3162 22.4892C30.3105 22.5722 30.3212 22.6554 30.3477 22.7341C30.3742 22.8129 30.416 22.8857 30.4706 22.9483C30.5252 23.0109 30.5916 23.0622 30.6661 23.0992C30.7405 23.1361 30.8215 23.1581 30.9044 23.1637C30.9873 23.1694 31.0705 23.1587 31.1493 23.1322C31.2281 23.1057 31.3008 23.0639 31.3635 23.0093C31.4261 22.9547 31.4773 22.8882 31.5143 22.8138C32.2117 21.5433 33.1605 20.4282 34.3029 19.5364C36.7591 17.6458 39.6106 17.3535 42.7784 18.6682Z" fill="black"/>
<path d="M35.6674 13.9801C35.6158 14.1397 35.6297 14.3134 35.7061 14.4628C35.7825 14.6122 35.9151 14.7252 36.0747 14.7769C36.9459 15.0336 37.8494 15.1641 38.7577 15.1646C39.8159 15.1646 41.0382 14.9736 42.1342 14.3239C43.5686 13.474 44.4883 12.026 44.8695 10.0208C44.8853 9.93899 44.8849 9.85489 44.8681 9.77329C44.8514 9.6917 44.8187 9.6142 44.772 9.54526C44.7252 9.47632 44.6653 9.41729 44.5957 9.37154C44.5261 9.3258 44.4482 9.29425 44.3663 9.2787C44.2845 9.26315 44.2004 9.26391 44.1189 9.28094C44.0373 9.29796 43.96 9.33091 43.8912 9.37791C43.8224 9.4249 43.7636 9.48501 43.7181 9.55478C43.6726 9.62456 43.6413 9.70263 43.6261 9.78451C43.3162 11.4152 42.599 12.5752 41.4945 13.2323C39.3934 14.4824 36.5093 13.5874 36.4636 13.5728C36.304 13.5214 36.1305 13.5354 35.9813 13.6117C35.832 13.6881 35.7191 13.8206 35.6674 13.9801Z" fill="black"/>
<path d="M27.3024 30.3309C27.5279 30.3309 27.7482 30.2641 27.9357 30.1389C28.1231 30.0137 28.2692 29.8357 28.3555 29.6274C28.4417 29.4192 28.4643 29.19 28.4204 28.9689C28.3764 28.7478 28.2679 28.5448 28.1085 28.3854C27.9491 28.226 27.746 28.1174 27.5249 28.0734C27.3038 28.0294 27.0747 28.052 26.8664 28.1383C26.6582 28.2245 26.4802 28.3706 26.3549 28.558C26.2297 28.7454 26.1628 28.9658 26.1628 29.1912C26.1632 29.4933 26.2834 29.783 26.497 29.9967C26.7107 30.2103 27.0003 30.3305 27.3024 30.3309ZM27.3024 29.0653C27.3274 29.0653 27.3518 29.0726 27.3725 29.0865C27.3932 29.1003 27.4094 29.12 27.419 29.143C27.4285 29.1661 27.431 29.1914 27.4262 29.2159C27.4213 29.2403 27.4093 29.2628 27.3917 29.2804C27.374 29.2981 27.3516 29.3101 27.3271 29.3149C27.3026 29.3198 27.2773 29.3173 27.2543 29.3077C27.2312 29.2982 27.2115 29.282 27.1977 29.2613C27.1839 29.2405 27.1765 29.2161 27.1765 29.1912C27.1767 29.1579 27.19 29.1259 27.2136 29.1024C27.2372 29.0788 27.2691 29.0654 27.3024 29.0653Z" fill="black"/>
<path d="M36.2693 9.65903C36.4947 9.65903 36.7151 9.59219 36.9025 9.46695C37.0899 9.34172 37.236 9.16373 37.3223 8.95548C37.4085 8.74722 37.4311 8.51807 37.3871 8.29699C37.3432 8.07591 37.2346 7.87284 37.0752 7.71345C36.9158 7.55406 36.7128 7.44551 36.4917 7.40154C36.2706 7.35756 36.0414 7.38013 35.8332 7.46639C35.6249 7.55265 35.4469 7.69873 35.3217 7.88615C35.1965 8.07357 35.1296 8.29392 35.1296 8.51933C35.13 8.8215 35.2502 9.11119 35.4638 9.32485C35.6775 9.53851 35.9672 9.65869 36.2693 9.65903ZM36.2693 8.3934C36.2943 8.3934 36.3186 8.4008 36.3394 8.41465C36.3601 8.42851 36.3763 8.4482 36.3858 8.47123C36.3953 8.49427 36.3978 8.51961 36.3929 8.54407C36.3881 8.56852 36.3761 8.59097 36.3584 8.6086C36.3408 8.62622 36.3183 8.63821 36.2939 8.64306C36.2694 8.64792 36.2441 8.64541 36.221 8.63585C36.198 8.62629 36.1783 8.61012 36.1645 8.58938C36.1507 8.56864 36.1433 8.54427 36.1433 8.51933C36.1435 8.48597 36.1568 8.45402 36.1804 8.43043C36.204 8.40685 36.236 8.39354 36.2693 8.3934Z" fill="black"/>
<path d="M52.3328 8.78979C52.1074 8.78979 51.887 8.85664 51.6996 8.98188C51.5122 9.10711 51.3661 9.28511 51.2799 9.49337C51.1936 9.70163 51.171 9.93079 51.215 10.1519C51.259 10.373 51.3676 10.576 51.527 10.7354C51.6864 10.8948 51.8894 11.0033 52.1105 11.0473C52.3316 11.0913 52.5608 11.0687 52.769 10.9824C52.9773 10.8961 53.1553 10.75 53.2805 10.5626C53.4057 10.3752 53.4725 10.1548 53.4725 9.92938C53.4722 9.62723 53.352 9.33755 53.1383 9.12391C52.9247 8.91026 52.635 8.7901 52.3328 8.78979ZM52.3328 10.0554C52.3079 10.0554 52.2835 10.048 52.2628 10.0342C52.2421 10.0203 52.2259 10.0006 52.2164 9.97762C52.2068 9.95459 52.2043 9.92924 52.2092 9.9048C52.2141 9.88035 52.2261 9.85789 52.2437 9.84026C52.2613 9.82264 52.2838 9.81063 52.3082 9.80577C52.3327 9.80091 52.358 9.8034 52.381 9.81294C52.4041 9.82248 52.4238 9.83864 52.4376 9.85936C52.4515 9.88009 52.4589 9.90446 52.4589 9.92938C52.4587 9.96277 52.4454 9.99474 52.4218 10.0184C52.3982 10.042 52.3662 10.0553 52.3328 10.0554Z" fill="black"/>
<path d="M26.8358 23.9136C26.8358 23.6882 26.7689 23.4678 26.6437 23.2804C26.5184 23.0929 26.3404 22.9469 26.1321 22.8606C25.9238 22.7744 25.6946 22.7518 25.4735 22.7959C25.2524 22.8399 25.0493 22.9485 24.89 23.108C24.7306 23.2674 24.6221 23.4705 24.5782 23.6917C24.5343 23.9128 24.557 24.142 24.6433 24.3502C24.7297 24.5584 24.8759 24.7364 25.0634 24.8615C25.2509 24.9867 25.4713 25.0534 25.6967 25.0533C25.9988 25.0528 26.2883 24.9326 26.5019 24.7189C26.7154 24.5053 26.8355 24.2157 26.8358 23.9136ZM25.6967 24.0402C25.6718 24.0402 25.6475 24.0328 25.6267 24.019C25.606 24.0052 25.5898 23.9856 25.5803 23.9626C25.5707 23.9396 25.5681 23.9143 25.573 23.8898C25.5778 23.8654 25.5897 23.8429 25.6073 23.8253C25.6248 23.8076 25.6473 23.7955 25.6717 23.7906C25.6961 23.7857 25.7214 23.7881 25.7445 23.7975C25.7675 23.807 25.7872 23.8231 25.8012 23.8437C25.8151 23.8644 25.8225 23.8887 25.8227 23.9136C25.8225 23.9471 25.8091 23.9791 25.7854 24.0027C25.7617 24.0264 25.7297 24.0396 25.6962 24.0397L25.6967 24.0402Z" fill="black"/>
<path d="M50.4566 24.6292C50.2312 24.6292 50.0108 24.696 49.8234 24.8212C49.636 24.9465 49.4899 25.1245 49.4036 25.3327C49.3174 25.541 49.2948 25.7701 49.3388 25.9912C49.3828 26.2123 49.4913 26.4153 49.6507 26.5747C49.8101 26.7341 50.0132 26.8427 50.2342 26.8866C50.4553 26.9306 50.6845 26.908 50.8927 26.8218C51.101 26.7355 51.279 26.5894 51.4042 26.402C51.5294 26.2146 51.5963 25.9943 51.5963 25.7688C51.5959 25.4667 51.4758 25.177 51.2621 24.9633C51.0484 24.7497 50.7588 24.6295 50.4566 24.6292ZM50.4566 25.8948C50.4317 25.8948 50.4073 25.8873 50.3867 25.8735C50.366 25.8596 50.3498 25.84 50.3403 25.817C50.3308 25.794 50.3283 25.7686 50.3332 25.7442C50.3381 25.7198 50.3501 25.6974 50.3677 25.6798C50.3853 25.6622 50.4077 25.6502 50.4322 25.6453C50.4566 25.6405 50.4819 25.643 50.5049 25.6525C50.5279 25.662 50.5476 25.6782 50.5614 25.6989C50.5752 25.7196 50.5826 25.7439 50.5826 25.7688C50.5825 25.8022 50.5691 25.8342 50.5455 25.8577C50.5219 25.8813 50.49 25.8946 50.4566 25.8948Z" fill="black"/>
</svg>
