<svg width="601" height="255" viewBox="0 0 601 255" fill="none" xmlns="http://www.w3.org/2000/svg">
<path d="M172.72 231.787C172.594 231.301 172.368 231.03 172.22 231.186C172.072 231.342 171.584 230.971 171.138 230.362C170.666 229.72 170.09 229.31 169.766 229.386C169.324 229.49 169.262 229.397 169.47 228.942C169.671 228.499 169.623 228.354 169.262 228.317C168.892 228.278 168.863 228.108 169.128 227.519C169.385 226.949 169.356 226.759 169.01 226.723C168.759 226.698 168.515 226.525 168.466 226.339C168.418 226.154 168.552 226.062 168.764 226.135C168.985 226.212 169.004 226.06 168.81 225.779C168.624 225.51 168.643 225.249 168.853 225.2C169.131 225.135 169.089 224.945 168.697 224.503C168.266 224.015 168.263 223.872 168.686 223.772C169.111 223.672 169.108 223.578 168.673 223.284C168.116 222.906 167.387 223.532 167.665 224.15C167.736 224.31 167.636 224.549 167.443 224.682C167.211 224.841 167.088 224.646 167.084 224.113C167.081 223.667 166.964 223.417 166.823 223.557C166.683 223.697 166.238 223.768 165.834 223.715C165.252 223.638 165.38 223.497 166.454 223.033C167.298 222.668 167.76 222.264 167.681 221.959C167.611 221.691 167.846 221.403 168.203 221.319C168.56 221.235 168.978 220.814 169.133 220.383C169.41 219.612 170.875 218.303 171.46 218.304C171.626 218.304 172.553 217.883 173.52 217.367C174.488 216.852 176.191 216.099 177.304 215.695C178.418 215.291 179.376 214.8 179.434 214.604C179.492 214.409 179.867 214.168 180.269 214.069C180.67 213.97 181.78 213.217 182.736 212.396C183.692 211.575 184.728 210.84 185.037 210.763C185.347 210.685 185.652 210.445 185.716 210.228C185.78 210.011 185.663 209.873 185.456 209.922C184.993 210.031 184.758 208.446 185.215 208.303C185.396 208.246 186.151 207.85 186.894 207.422C187.638 206.994 188.637 206.652 189.116 206.663C189.594 206.674 190.424 206.418 190.958 206.095C191.493 205.771 192.725 205.14 193.696 204.691C196.361 203.459 197.739 202.63 197.655 202.308C197.569 201.975 180.496 206.24 176.356 207.629C174.175 208.361 173.307 208.505 172.279 208.308C171.561 208.17 170.892 208.052 170.793 208.046C170.694 208.041 170.125 207.951 169.529 207.848C168.932 207.745 168.232 207.812 167.972 207.997C167.713 208.182 163.307 209.38 158.182 210.659C153.056 211.937 148.226 213.298 147.449 213.681C146.672 214.065 144.282 214.984 142.138 215.722C139.994 216.461 137.994 217.293 137.694 217.57C137.393 217.847 136.394 218.174 135.473 218.296C134.553 218.418 133.754 218.672 133.698 218.862C133.642 219.051 133.433 219.149 133.234 219.08C133.035 219.011 132.914 219.119 132.967 219.32C133.019 219.521 132.941 219.682 132.794 219.676C132.198 219.655 129.494 220.959 129.566 221.233C129.653 221.57 127.276 222.725 126.29 222.824C125.927 222.86 125.429 223.27 125.184 223.735C124.939 224.199 124.486 224.658 124.177 224.755C123.869 224.851 122.723 225.176 121.632 225.476C120.54 225.777 119.093 226.343 118.415 226.736C117.738 227.128 116.638 227.67 115.972 227.941C115.306 228.211 114.878 228.549 115.021 228.692C115.467 229.14 114.761 229.451 109.085 231.305C108.784 231.403 108.602 231.625 108.682 231.797C108.761 231.97 108.55 232.273 108.211 232.471C107.873 232.67 107.287 233.188 106.908 233.624C106.412 234.194 105.207 234.72 102.611 235.501C100.627 236.098 98.652 236.651 98.2222 236.731C97.7924 236.812 97.0435 237.233 96.5579 237.667C96.0565 238.116 95.5504 238.342 95.3864 238.189C94.9838 237.815 93.6974 237.667 94.0673 238.038C94.4571 238.428 94.126 238.481 93.1069 238.192C91.05 237.608 82.7524 240.373 82.1909 241.829C82.017 242.28 82.0548 242.548 82.2957 242.572C82.5028 242.593 82.7081 242.748 82.7519 242.916C82.7957 243.084 82.5996 243.188 82.3161 243.147C82.0325 243.105 81.7446 243.261 81.6762 243.492C81.4935 244.111 83.4746 243.561 84.4059 242.735C84.8335 242.355 85.8299 241.771 86.6201 241.437C87.4103 241.102 88.3067 240.716 88.6121 240.579C88.9175 240.441 89.2204 240.533 89.2852 240.782C89.3686 241.102 89.8096 241.103 90.7925 240.785C91.8666 240.438 92.0687 240.448 91.6829 240.83C91.4084 241.102 91.2918 241.433 91.4238 241.565C91.7085 241.85 89.9281 242.624 86.3856 243.753C84.3965 244.388 83.7179 244.481 83.3972 244.167C83.0963 243.872 83.0119 243.879 83.0897 244.193C83.2478 244.831 81.2136 245.201 80.3191 244.697C79.9013 244.461 79.5977 244.416 79.6445 244.595C79.6962 244.794 78.6212 245.084 76.9124 245.333C75.363 245.559 72.9457 245.924 71.5407 246.143C70.1358 246.363 68.4455 246.478 67.7846 246.399C67.1237 246.32 66.2281 246.417 65.7944 246.615C65.3608 246.813 64.8698 246.839 64.7035 246.672C64.5176 246.486 64.5976 246.437 64.911 246.546C65.2283 246.656 65.3046 246.606 65.113 246.414C64.7519 246.052 63.0597 246.046 61.151 246.399C60.0251 246.607 59.7599 246.526 59.5688 245.915C59.3636 245.259 59.5661 245.098 61.4775 244.397C62.6535 243.965 64.0002 243.558 64.4701 243.491L65.3246 243.369L64.3086 243.079C62.5469 242.576 60.9535 242.564 57.9704 243.031C56.3783 243.28 54.0325 243.46 52.7577 243.431C49.8257 243.363 40.2825 245.551 40.048 246.345C39.9674 246.618 39.6951 246.77 39.4431 246.682C38.7922 246.457 32.6147 247.783 32.9149 248.084C33.1957 248.365 33.1474 248.383 28.814 249.548C25.7556 250.371 24.4847 250.795 20.0241 252.484C17.9901 253.254 16.7183 253.386 15.3336 252.973C14.7537 252.799 14.8191 252.608 15.8263 251.529C16.6387 250.66 17.7366 250.002 19.4802 249.341C22.4558 248.213 25.2627 247.014 27.2515 246.021C28.441 245.427 28.646 245.184 28.3766 244.69C28.1832 244.336 27.8738 244.208 27.6275 244.382C27.3966 244.545 27.163 244.506 27.1082 244.296C27.0534 244.085 27.271 243.849 27.5917 243.77C28.0901 243.648 28.0893 243.596 27.5866 243.41C27.2146 243.273 27.1475 243.156 27.404 243.092C27.6277 243.036 27.6624 242.778 27.4813 242.516C27.2527 242.186 27.4979 241.769 28.2875 241.145L29.422 240.249L26.1046 240.809C24.28 241.117 21.8925 241.596 20.7992 241.873C19.7058 242.151 18.8062 242.359 18.8 242.335C18.7938 242.312 18.996 241.863 19.2493 241.338C19.5025 240.813 19.7371 240.489 19.7706 240.617C19.8041 240.746 20.1102 240.542 20.4508 240.164C20.7914 239.786 22.1377 239.036 23.4426 238.497C24.7474 237.958 26.3537 237.159 27.0121 236.722C27.6705 236.286 28.7524 235.794 29.4164 235.631C31.2714 235.174 35.6285 232.811 34.2433 233.013C34.0711 233.038 33.611 233.058 33.2208 233.057C32.8307 233.056 32.3171 233.056 32.0796 233.058C31.2703 233.065 31.1339 232.74 31.779 232.342C32.1331 232.124 32.7175 231.476 33.0778 230.903C33.438 230.329 34.0682 229.781 34.4781 229.685C34.888 229.588 35.3392 229.255 35.4808 228.944C35.6923 228.48 35.3843 228.42 33.7524 228.606C32.6603 228.73 31.2963 228.863 30.7212 228.901C29.3532 228.99 24.1445 230.25 23.8458 230.563C23.4429 230.986 19.662 232.031 19.5864 231.74C19.5466 231.587 19.6891 231.216 19.903 230.914C20.117 230.613 20.2497 230.204 20.1981 230.005C20.1464 229.807 20.0319 229.77 19.9435 229.923C19.8552 230.077 19.5362 230.077 19.2346 229.923C18.9309 229.768 18.7245 229.791 18.7722 229.974C18.8195 230.156 18.6327 230.357 18.3572 230.422C17.5551 230.611 17.6787 230.189 18.6495 229.425C19.7413 228.565 19.5018 228.369 17.3862 228.389C15.4563 228.407 14.9412 227.845 16.1063 226.992C17.3121 226.11 23.4763 223.882 27.1064 223.017C28.8079 222.611 30.5719 222.082 31.0262 221.841L31.8523 221.402L30.691 220.821C30.0523 220.501 29.2741 220.293 28.9617 220.359C28.1655 220.528 27.7818 220.035 27.9927 219.114C28.2154 218.142 30.7148 215.899 31.8821 215.624C32.3742 215.509 32.6199 215.292 32.4515 215.124C32.2885 214.96 31.8794 214.891 31.5425 214.971C30.9767 215.104 30.123 214.389 30.0892 213.754C30.0548 213.108 24.9351 215.044 24.6628 215.806C24.4547 216.388 16.2678 219.707 15.3458 219.583L14.4678 219.466L15.1325 218.853C15.4981 218.516 18.1136 217.251 20.9449 216.042C26.1257 213.829 27.2739 212.858 23.7194 213.694C22.6272 213.951 21.5711 213.99 21.1719 213.789C20.6049 213.502 19.9597 213.642 17.3428 214.621C12.5311 216.421 9.75192 217.533 9.12994 217.908C8.71786 218.157 8.55608 218.086 8.53008 217.646C8.49219 217.005 9.33841 216.043 10.8025 215.064C12.0627 214.22 11.0777 213.97 9.37601 214.701C8.63823 215.018 7.38679 215.546 6.59504 215.875L5.15549 216.472L6.08462 214.935C6.59564 214.09 6.99928 213.343 6.98159 213.275C6.96391 213.207 5.98906 213.262 4.81527 213.396C2.03997 213.715 0.395523 213.273 0.118794 212.134C-0.0271821 211.533 1.92448 210.222 3.89527 209.596C4.70661 209.339 6.50845 208.598 7.89937 207.95C9.2903 207.302 11.4623 206.455 12.7262 206.066C13.99 205.678 15.8829 204.984 16.9327 204.525C23.4525 201.671 24.9132 201.002 25.1626 200.758C25.3158 200.607 24.7227 200.473 23.8444 200.46C22.9606 200.446 22.1948 200.232 22.1295 199.981C21.9781 199.399 25.0154 197.344 27.9234 196.06C29.338 195.435 30.3312 194.767 30.584 194.271C30.8103 193.827 31.8074 193.099 32.8549 192.613C35.2316 191.512 35.0377 191.043 32.0393 190.642C31.3965 190.556 30.8914 190.29 30.917 190.051C30.9751 189.506 32.3245 188.379 33.1508 188.184C33.4924 188.104 33.6385 187.904 33.4755 187.741C33.3125 187.577 32.0608 187.707 30.6939 188.029C28.4419 188.559 27.4456 188.418 28.4159 187.707C29.2829 187.072 24.466 188.439 22.1812 189.477C19.3358 190.769 17.6407 190.907 17.3706 189.87C17.2461 189.392 17.955 188.558 20.0346 186.738C21.9935 185.024 22.7089 184.2 22.3523 184.068C21.675 183.819 22.1418 183.29 24.1825 181.998C27.063 180.173 29.0997 177.771 28.5192 176.884C28.1227 176.277 29.2615 175.628 34.1549 173.669C36.5872 172.696 38.9788 171.55 39.4695 171.124C39.9602 170.698 41.0743 170.085 41.9453 169.761C44.3468 168.87 48.7717 166.509 49.3749 165.798C49.6691 165.451 50.362 165.049 50.9146 164.905C51.4673 164.761 52.1852 164.438 52.5101 164.188C52.9804 163.827 52.8259 163.788 51.7516 163.998C48.8766 164.559 47.2904 164.624 46.7798 164.202C46.4313 163.913 46.0008 163.901 45.5297 164.165C44.9114 164.512 44.8796 164.495 45.302 164.047C45.572 163.76 46.0647 163.508 46.3969 163.487C46.7292 163.466 47.1691 163.271 47.3745 163.052C47.5955 162.817 48.1328 162.762 48.6905 162.917C49.425 163.122 49.7489 163.057 50.1585 162.623C50.4911 162.27 50.7907 162.173 50.9744 162.357C51.1341 162.517 52.1215 162.452 53.1686 162.212C54.2158 161.973 55.5061 161.911 56.0361 162.075C57.1906 162.431 57.5374 162.396 57.417 161.933C57.3675 161.743 57.0927 161.643 56.8063 161.71C56.5199 161.778 56.3321 161.675 56.3888 161.483C56.4456 161.291 56.1552 161.123 55.7434 161.109C55.3316 161.096 55.0067 160.865 55.0214 160.596C55.0485 160.099 56.4741 159.477 60.9973 157.986C65.0836 156.639 66.1957 156.17 66.1074 155.831C66.0609 155.652 65.7975 155.559 65.522 155.624C65.2436 155.69 64.941 155.435 64.8411 155.051C64.7091 154.544 64.8838 154.307 65.4961 154.163C66.4568 153.937 66.4821 153.366 65.5328 153.335C65.1811 153.323 63.493 153.732 61.7814 154.242C56.7963 155.729 54.7458 156.108 53.5325 155.764C52.9161 155.589 52.3316 155.531 52.2335 155.634C52.1354 155.737 52.0033 155.368 51.9399 154.815C51.8015 153.609 51.2844 153.537 47.8297 154.247C45.7621 154.671 45.5892 154.656 46.2029 154.106C47.2125 153.201 51.2817 151.284 53.808 150.525C55.0991 150.137 56.2644 149.561 56.626 149.133C57.3958 148.222 57.9653 148.079 58.7796 148.592C59.1459 148.822 60.0065 148.85 60.8092 148.656C63.2811 148.061 72.2639 144.915 73.4191 144.24C74.4979 143.611 74.5185 143.545 73.9764 142.47C73.6348 141.792 73.5127 141.18 73.666 140.914C73.84 140.611 73.7626 140.356 73.4169 140.092C72.3601 139.285 73.3214 138.84 78.2392 137.861C82.0602 137.1 83.223 136.75 83.8859 136.164C84.5873 135.543 88.0989 134.089 90.572 133.394C90.9354 133.292 91.9479 132.893 92.8222 132.507L94.4116 131.805L92.8433 131.907C91.9807 131.963 89.492 132.513 87.3129 133.129C85.1339 133.745 81.993 134.546 80.3332 134.91C78.6734 135.274 75.5026 136.267 73.2871 137.117C68.9033 138.799 64.3295 140.33 62.3092 140.792C61.6047 140.953 60.9692 141.243 60.8971 141.436C60.8249 141.63 60.3018 141.918 59.7347 142.077C59.1675 142.236 58.737 142.495 58.778 142.653C58.819 142.81 58.4887 142.92 58.0441 142.897C57.4112 142.864 57.365 142.908 57.8311 143.1C58.3444 143.311 58.3461 143.365 57.8435 143.488C57.5229 143.567 57.3055 143.804 57.3607 144.016C57.4223 144.253 57.0873 144.261 56.4925 144.037C55.4169 143.633 54.9907 143.63 55.3898 144.03C55.5343 144.174 55.3746 144.444 55.035 144.629C54.6817 144.821 54.3731 144.794 54.3135 144.565C54.2532 144.334 53.6821 144.29 52.957 144.46C52.161 144.648 51.7725 144.9 51.891 145.152C52.0193 145.426 51.6798 145.589 50.8022 145.676C49.3639 145.819 47.7826 145.337 47.6092 144.702C47.5348 144.431 47.4261 144.492 47.3049 144.874C47.1584 145.335 47.0583 145.251 46.8577 144.496C46.5266 143.251 46.8001 142.058 47.4516 141.905C47.7315 141.839 47.8271 141.652 47.6641 141.488C47.5011 141.325 47.6365 141.115 47.9651 141.023C49.0531 140.715 49.6976 140.341 50.3104 139.662C50.8599 139.052 52.4732 138.857 52.6103 139.384C52.6351 139.479 52.4331 139.524 52.1615 139.484C51.89 139.444 51.5262 139.732 51.3531 140.123C51.0819 140.736 51.0933 140.778 51.436 140.427C51.7415 140.114 51.8171 140.179 51.7632 140.709C51.7213 141.121 51.8949 141.47 52.1952 141.578C52.9434 141.848 53.4609 141.642 52.7683 141.351C52.319 141.162 52.5007 141.071 53.5021 140.983C54.2382 140.918 55.0599 140.625 55.3408 140.327C55.7252 139.92 55.9941 139.863 56.4471 140.094C56.9297 140.34 57.0647 140.268 57.1448 139.724C57.1994 139.353 57.1898 138.939 57.1236 138.803C57.0573 138.667 57.216 138.506 57.4762 138.445C57.7364 138.384 57.9604 138.142 57.9738 137.908C57.9872 137.674 58.4265 137.331 58.9499 137.144C59.4733 136.958 60.0076 136.528 60.1372 136.19C60.2669 135.851 60.5245 135.659 60.7097 135.764C60.8949 135.869 60.8812 135.704 60.6793 135.399C60.2273 134.715 60.848 134.495 61.3167 135.173C61.6146 135.604 61.7078 135.575 62.1272 134.925C62.575 134.231 62.6109 134.227 62.7776 134.848C62.9255 135.398 62.9847 135.409 63.143 134.91C63.4244 134.024 63.3117 133.872 62.3574 133.85C61.7521 133.836 61.4468 133.606 61.3518 133.09C61.2004 132.269 62.2068 131.392 63.5684 131.158C64.8377 130.94 65.8249 130.235 65.674 129.656C65.5768 129.282 65.8802 129.095 66.8188 128.948C68.1914 128.733 70.3547 127.811 71.0462 127.146C71.3897 126.816 71.3416 126.762 70.7966 126.868C70.4254 126.939 69.3512 127.102 68.4095 127.229C65.4978 127.622 61.7224 128.52 60.4338 129.126C59.5493 129.542 59.2408 129.579 59.3352 129.26C59.4163 128.985 59.3057 128.929 59.046 129.112C58.7997 129.286 58.274 129.074 57.7766 128.6C57.1694 128.022 57.0321 127.725 57.2944 127.558C57.5407 127.401 57.4216 127.21 56.9317 126.977C56.2668 126.661 56.2951 126.625 57.2511 126.574C57.828 126.544 58.0883 126.471 57.8295 126.413C56.8762 126.199 57.2315 125.665 58.5299 125.36C59.3733 125.161 59.9092 125.204 59.9834 125.476C60.0698 125.793 60.1446 125.765 60.266 125.37C60.3697 125.033 60.5432 124.946 60.7327 125.136C61.0546 125.459 61.4722 125.329 62.3957 124.621C62.7124 124.379 63.4628 124.053 64.0632 123.898C65.4399 123.544 65.666 122.58 64.297 122.902C63.7555 123.029 63.1994 122.922 63.014 122.654C62.7933 122.334 62.8953 122.132 63.3277 122.03C63.6802 121.947 64.0382 121.656 64.1232 121.384C64.345 120.674 65.515 119.62 65.9238 119.762C66.1145 119.828 66.3239 119.702 66.389 119.481C66.4541 119.261 66.922 118.983 67.4289 118.864C67.9358 118.744 69.1011 118.202 70.0185 117.659C71.4665 116.801 71.5788 116.656 70.8705 116.557C70.4217 116.495 67.6048 117.043 64.6106 117.775C61.6166 118.507 58.9377 119.027 58.6577 118.93C58.3678 118.829 58.0932 118.941 58.0198 119.19C57.8684 119.702 47.5747 122.486 47.2042 122.115C47.0739 121.985 46.7582 122.025 46.5026 122.206C46.1879 122.428 46.1791 122.582 46.4755 122.685C46.7162 122.768 46.4563 122.944 45.898 123.075C45.3397 123.207 44.8442 123.166 44.7969 122.984C44.7496 122.802 44.5331 122.904 44.3157 123.211C44.0983 123.517 43.7848 123.682 43.619 123.578C43.4533 123.473 43.6146 123.006 43.9774 122.539L44.6372 121.69L43.8455 122.052C43.1517 122.37 43.1258 122.355 43.6362 121.929C44.4762 121.229 46.0719 120.906 47.1384 121.219C48.1778 121.525 49.2655 121.088 49.095 120.433C49.0164 120.131 49.6406 119.84 51.1497 119.476C52.5098 119.147 53.3542 119.093 53.4162 119.332C53.4706 119.54 53.6366 119.412 53.7851 119.047C53.9802 118.567 54.8275 118.135 56.8363 117.492C58.3659 117.003 60.509 116.16 61.5986 115.619C62.6883 115.077 64.0551 114.507 64.6359 114.351C65.2168 114.195 66.3882 113.678 67.2391 113.202C68.6899 112.391 68.5084 112.415 64.3265 113.587C61.8736 114.274 59.642 114.892 59.3673 114.96C59.0925 115.028 55.7313 116.209 51.898 117.584C48.0646 118.959 43.8661 120.385 42.5681 120.752C41.27 121.119 40.3072 121.52 40.4283 121.642C40.5495 121.765 40.0012 122.019 39.2099 122.206C38.4184 122.392 36.4771 123.09 34.8956 123.754C32.1835 124.893 25.6416 126.95 26.461 126.405C26.6698 126.267 26.7186 126.031 26.5695 125.882C26.4204 125.732 26.7187 125.503 27.2323 125.373C27.746 125.242 28.6154 124.716 29.1644 124.204C29.7134 123.692 30.4254 123.058 30.7467 122.794C31.8025 121.927 50.6228 113.919 55.1579 112.407C56.5033 111.958 60.3794 110.611 63.7715 109.413C67.1636 108.215 71.6507 106.672 73.7428 105.984C75.8349 105.295 78.2111 104.337 79.0233 103.854C80.0902 103.219 80.5918 103.067 80.8307 103.306C81.1336 103.61 84.6222 102.686 88.7512 101.209C89.3754 100.986 91.3638 100.352 93.1698 99.8014C96.4104 98.8125 101.246 96.9137 103.885 95.5934C104.63 95.2206 105.404 94.9724 105.605 95.0419C105.805 95.1114 108.066 94.311 110.629 93.2632C114.422 91.713 115.452 91.4035 116.164 91.6016C116.88 91.8007 117.665 91.5541 120.488 90.2446C125.187 88.0647 131.32 85.2251 134.377 83.8138C135.769 83.171 137.784 82.2051 138.854 81.6672C139.923 81.1293 141.294 80.5735 141.899 80.432C142.504 80.2895 143.618 79.7916 144.373 79.3233C145.646 78.5341 148.365 77.3506 155.676 74.4038C159.431 72.89 160.183 72.5676 163.966 70.8499C165.71 70.0582 168.572 68.8001 170.327 68.054C172.083 67.308 173.949 66.5143 174.476 66.2903C178.202 64.7056 178.948 64.5432 179.917 65.1057C180.441 65.4092 180.914 65.834 180.971 66.0498C181.027 66.2656 181.181 66.3972 181.313 66.3423C181.445 66.2876 181.901 66.1802 182.326 66.1037C182.973 65.9877 183.073 66.0836 182.934 66.6894C182.731 67.5762 183.169 67.9256 183.645 67.2559C184.179 66.5025 184.161 67.0713 183.614 68.2007C183.327 68.7931 182.608 69.433 181.875 69.7481C180.804 70.2081 180.705 70.3463 181.18 70.7095C181.894 71.2547 181.45 71.4035 202.154 63.6867C203.576 63.1568 206.147 62.3127 207.869 61.8108C209.59 61.309 212.684 60.3279 214.744 59.6306C216.805 58.9333 219.527 58.0536 220.793 57.6757C222.059 57.2978 223.647 56.6875 224.323 56.3196C224.998 55.9517 227.835 55.1028 230.628 54.4331C233.421 53.7635 235.887 53.0993 236.108 52.9573C236.655 52.6068 244.371 50.3405 246.253 49.9777C247.085 49.8174 248.051 49.8472 248.401 50.0441C249.184 50.4854 250.802 50.1672 258.181 48.1213C261.573 47.1808 264.641 46.1354 265.597 45.5944C266.844 44.8885 269.053 44.2558 274.997 42.9015C279.271 41.928 286.344 40.1649 290.716 38.9839C299.574 36.5905 299.095 36.6997 308.448 34.9391C314.504 33.7992 317.96 32.9977 323.156 31.5279C324.064 31.2712 324.525 31.0518 324.181 31.0405C323.837 31.0293 323.513 30.8575 323.461 30.6588C323.399 30.4205 324.323 30.1454 326.175 29.8503C327.719 29.6044 332.33 28.7826 336.422 28.0241C340.513 27.2656 345.781 26.3624 348.128 26.017C357.557 24.6292 361.147 24.0773 366.02 23.2662C378.209 21.2376 384.607 20.0664 391.226 18.6525C394.273 18.0016 398.071 17.2743 399.666 17.0363C401.261 16.7983 403.615 16.342 404.896 16.0223C406.178 15.7029 408.769 15.2403 410.654 14.995C412.54 14.7496 418.547 13.5709 424.003 12.3756C429.459 11.1803 434.626 10.1977 435.485 10.1921C436.345 10.1864 438.251 9.98807 439.721 9.75135C441.191 9.51464 442.887 9.28977 443.49 9.25165C445.552 9.12123 448.694 8.62294 453.24 7.70549C457.243 6.89756 461.18 6.29332 467.043 5.58681C467.989 5.47288 469.299 5.29929 469.956 5.201C470.613 5.10278 472.303 4.85686 473.713 4.65463C475.122 4.4524 477.502 4.09912 479.002 3.86963C480.501 3.64007 481.816 3.48246 481.923 3.51935C482.031 3.55627 482.998 3.47919 484.072 3.34827C485.147 3.2173 486.269 3.14575 486.566 3.1893C486.863 3.23281 488.447 3.00174 490.088 2.67584C494.592 1.78069 494.586 1.78115 494.731 2.33975C494.805 2.62488 495.025 2.82068 495.22 2.7749C495.414 2.72911 495.418 2.5353 495.227 2.34419C494.99 2.10724 495.085 2.02667 495.524 2.09097C495.877 2.14285 496.498 2.10727 496.903 2.01192C497.401 1.89491 497.715 2.05938 497.87 2.51792C498.145 3.32995 497.974 3.41228 497.124 2.87686C496.237 2.31801 495.469 2.55629 495.901 3.25658C496.113 3.6015 496.099 3.69408 495.864 3.49727C495.603 3.27928 494.649 3.45129 492.869 4.03736C489.805 5.04616 487.42 5.52837 482.936 6.04553C481.138 6.25289 478.818 6.53349 477.781 6.66903C476.745 6.80462 475.705 6.89755 475.472 6.87542C475.239 6.85338 475.022 7.09179 474.99 7.40518C474.947 7.82725 474.649 7.97722 473.843 7.98336C472.576 7.99301 471.78 8.07061 468.512 8.50307C467.192 8.67763 466.008 8.78442 465.88 8.74037C465.607 8.64651 461.134 9.67341 455.043 11.2281C451.179 12.2144 448.389 12.661 446.216 12.6413C444.991 12.6301 436.907 14.4034 436.976 14.6681C437.011 14.8042 438.084 14.7891 439.359 14.6346C440.635 14.4801 441.995 14.3443 442.382 14.3328C445.096 14.2523 452.152 13.2174 457.746 12.0793C459.042 11.8156 460.288 11.6678 460.516 11.7507C460.895 11.8887 471.337 10.3069 471.848 10.0342C471.97 9.96917 473.225 9.75952 474.637 9.56828C476.821 9.27254 482.368 8.40604 483.748 8.14505C484.247 8.05064 484.422 8.48308 484.044 8.8793C483.773 9.16364 481.268 9.80416 478.949 10.1821C478.24 10.2976 477.485 10.216 477.271 10.001C476.981 9.71008 476.392 9.78866 474.972 10.308C473.921 10.6918 472.978 11.0914 472.874 11.196C472.771 11.3006 472.397 11.2039 472.043 10.9811C471.69 10.7584 471.355 10.728 471.301 10.9137C471.194 11.2739 464.418 12.726 462.371 12.8272C461.697 12.8605 460.531 12.9986 459.778 13.1341C459.026 13.2696 458.03 13.2747 457.566 13.1454C456.891 12.9575 456.746 13.0029 456.842 13.3719C456.912 13.6435 456.525 13.9757 455.9 14.1794C453.316 15.0215 449.615 15.8706 446.618 16.3084C444.463 16.6233 443.569 16.8577 443.954 17.0071C445.508 17.6095 443.155 18.6407 439.191 19.0946C435.677 19.497 435.062 19.6195 433.648 20.1978C432.919 20.4962 431.846 20.7217 431.264 20.6989C429.73 20.6389 422.113 21.6864 418.789 22.4144C417.221 22.7577 414.934 23.1622 413.706 23.3132C412.478 23.4643 410.025 23.8441 408.254 24.1573C406.484 24.4704 402.27 25.1347 398.891 25.6335C395.512 26.1322 390.507 26.9565 387.77 27.4653C383.308 28.2944 382.785 28.4553 382.728 29.0162C382.674 29.5496 382.115 29.769 378.941 30.5028C376.893 30.9764 374.574 31.6489 373.787 31.9976L372.357 32.6318L374.962 32.4275C376.395 32.3152 378.093 32.0953 378.734 31.9388C379.376 31.7818 382.067 31.3998 384.716 31.0889C387.364 30.7779 392.357 30.0428 395.81 29.4552C399.264 28.8676 402.443 28.3826 402.875 28.3774C403.307 28.3722 406.748 27.8022 410.52 27.1106C417.301 25.8678 422.062 25.0353 425.7 24.4564C426.73 24.2926 430.252 23.6949 433.528 23.1282C436.804 22.5615 439.719 22.1162 440.005 22.1386C440.292 22.161 440.857 22.2262 441.262 22.2835C441.667 22.3408 442.587 22.2948 443.307 22.1814C444.027 22.068 444.854 22.1808 445.146 22.432C445.566 22.7948 446.471 22.7212 449.538 22.0745C451.663 21.6267 453.576 21.3205 453.791 21.3941C454.005 21.4677 455.331 21.3539 456.737 21.1412C463.462 20.1244 470.159 19.008 473.213 18.3944C475.066 18.0223 479.057 17.4234 482.082 17.0636C485.108 16.7038 488.949 16.1427 490.619 15.8167C502.175 13.5603 511.457 11.9594 516.4 11.37C518.101 11.1672 521.065 10.7375 522.985 10.4153C524.905 10.0931 526.59 9.9437 526.73 10.0833C526.869 10.223 526.489 10.4669 525.885 10.6254C525.281 10.7841 524.371 11.0453 523.863 11.2064C523.355 11.3674 522.845 11.4051 522.73 11.2902C522.615 11.1753 522.008 11.3706 521.379 11.7243C520.742 12.0832 519.245 12.4939 517.991 12.6538C516.756 12.8114 510.318 14.1528 503.686 15.6348C497.054 17.1168 489.122 18.8126 486.059 19.4032C480.599 20.456 479.103 20.9501 482.746 20.4971C483.757 20.3715 484.676 20.3268 484.789 20.3979C485.091 20.5883 484.029 21.4856 483.052 21.8644C481.914 22.3058 481.656 22.8313 482.675 22.6312C483.123 22.5433 485.482 22.1563 487.916 21.7715C490.35 21.3866 495.108 20.518 498.49 19.8413C504.049 18.7289 504.653 18.669 504.796 19.2167C504.994 19.9768 506.385 19.8402 514.572 18.2562C517.874 17.6176 520.687 17.2077 520.825 17.3456C520.962 17.4834 521.734 17.4413 522.538 17.2518C525.282 16.606 524.762 17.7414 521.594 19.3121C520.699 19.7555 519.461 20.2071 518.842 20.3156C514.714 21.0398 515.958 21.4691 520.664 20.9445C522.559 20.7333 525.18 20.3883 526.49 20.1777C527.8 19.9671 530.19 19.6492 531.8 19.4712C533.411 19.2932 536.634 18.8079 538.963 18.3928C541.831 17.8817 543.343 17.759 543.649 18.0124C543.899 18.2198 545.17 18.2416 546.497 18.0615C547.815 17.8826 549.093 17.8908 549.338 18.0796C549.582 18.2685 550.906 18.2696 552.281 18.082C553.656 17.8945 555.178 17.8902 555.662 18.0725C556.217 18.2814 557.725 18.1853 559.74 17.8127C564.085 17.0094 567.549 16.6076 567.816 16.8757C568.098 17.1576 565.295 18.3143 564.771 18.1327C564.556 18.0583 564.419 18.1447 564.465 18.3249C564.512 18.505 565.103 18.6307 565.779 18.6042C567.112 18.5519 567.464 18.9253 566.636 19.514C565.659 20.2086 567.366 20.5426 570.963 20.36C573.983 20.2067 575.975 20.4272 574.654 20.7687C573.412 21.0896 575.499 21.2452 577.56 20.9854C578.784 20.8311 580 20.8138 580.261 20.9469C580.522 21.08 581.728 21.1236 582.94 21.0438C586.308 20.822 586.386 21.2625 583.162 22.3053C581.958 22.695 580.91 23.2561 580.654 23.6491C580.293 24.2004 579.727 24.3896 577.556 24.6834C573.141 25.2808 572.309 25.5624 571.894 26.6012C571.69 27.1096 571.617 27.6191 571.731 27.7333C571.845 27.8476 572.98 27.8115 574.252 27.6532C575.525 27.4949 576.748 27.4521 576.971 27.558C577.193 27.664 578.118 27.6927 579.025 27.6217C581.516 27.427 581.152 28.0309 578.386 28.6819C577.039 28.999 575.853 29.4018 575.751 29.5771C575.649 29.7524 574.279 30.1987 572.706 30.569C570.716 31.0371 569.836 31.384 569.815 31.7079C569.793 32.027 570.187 32.0794 571.065 31.8742C571.769 31.7091 572.909 31.5936 573.597 31.6167C574.285 31.6398 576.146 31.4576 577.732 31.2119C579.318 30.9662 580.823 30.8709 581.077 31C581.33 31.1291 581.602 31.1235 581.68 30.9876C581.758 30.8517 582.205 30.7874 582.673 30.8448C583.331 30.9253 583.005 31.1247 581.244 31.7195C579.166 32.4214 576.868 33.4976 575.715 34.3085C574.984 34.8231 576.344 34.8793 580.284 34.497C582.232 34.3079 583.851 34.2454 583.88 34.3581C583.91 34.4709 584.894 34.2688 586.068 33.9091C587.782 33.3835 588.227 33.3543 588.333 33.7602C588.496 34.3867 587.705 35.6599 587.064 35.8032C586.671 35.8913 586.66 35.8314 587.002 35.4568C587.354 35.0714 587.327 35.024 586.819 35.1386C586.491 35.2125 586.196 35.5358 586.164 35.8565C586.113 36.3533 585.523 36.5481 582.175 37.1726C577.98 37.9551 577.021 38.4236 578.033 39.1959C579.727 40.4895 585.387 40.9718 588.972 40.128C591.138 39.6182 592.378 39.7712 592.587 40.5738C592.692 40.9755 592.184 41.2041 590.129 41.681C588.704 42.0117 586.894 42.2596 586.107 42.2323C585.32 42.2051 581.797 42.7856 578.278 43.5225C572.056 44.8255 571.884 44.8815 572.011 45.5689C572.135 46.2449 572.667 46.6277 573.415 46.579C573.607 46.5665 575.12 46.5042 576.777 46.4405C582.202 46.2321 586.945 45.7664 591.717 44.9739C596.138 44.2396 597.724 44.2865 597.47 45.1442C597.412 45.34 597.198 45.4421 596.993 45.3712C596.788 45.3002 596.715 45.4385 596.831 45.6783C596.948 45.9194 596.777 46.1543 596.449 46.2037C596.123 46.2529 595.96 46.397 596.086 46.524C596.213 46.6509 595.832 46.974 595.24 47.2418C593.961 47.8207 593.803 48.5189 594.759 49.3763C595.268 49.8331 595.392 50.1479 595.215 50.5369C594.924 51.1747 595.301 51.4758 596.142 51.2778C596.479 51.1986 596.771 51.1988 596.792 51.2783C596.812 51.3578 596.999 51.6684 597.207 51.9685C597.553 52.4698 597.337 52.5525 594.547 52.9856C592.877 53.245 590.923 53.4974 590.205 53.5465C589.165 53.6176 588.927 53.7459 589.039 54.1749C589.116 54.4714 588.974 54.9113 588.722 55.1525C588.073 55.7751 589.05 57.6584 590.113 57.833C590.873 57.9578 590.88 57.9737 590.256 58.1674C589.6 58.3709 589.6 58.3709 590.345 58.5107C591.072 58.6471 590.194 58.9851 586.801 59.8752C585.386 60.2465 584.427 60.966 584.577 61.5434C584.657 61.852 584.36 62.1218 583.789 62.2594C583.284 62.3815 582.554 62.6554 582.167 62.8695C581.506 63.2345 581.507 63.2789 582.176 63.5843C582.568 63.7634 583.302 63.8181 583.806 63.7059C584.31 63.5939 585.855 63.8128 587.241 64.1928C588.638 64.5762 590.245 64.7694 590.851 64.6268C592.875 64.1504 596.147 63.8474 596.059 64.1444C596.011 64.3065 596.222 64.3576 596.528 64.258C596.833 64.1584 597.207 64.3323 597.357 64.6445C597.707 65.3691 596.077 67.1442 595.011 67.1983C594.585 67.22 594.226 67.4202 594.213 67.6433C594.183 68.1692 590.321 69.2249 588.651 69.1638C587.941 69.1378 584.472 69.7517 580.942 70.5279C574.973 71.8402 573.266 72.4293 575.609 72.3678C576.142 72.3538 577.295 72.3415 578.172 72.3405C579.049 72.3394 580.407 72.195 581.19 72.0195C581.973 71.8441 582.654 71.8561 582.703 72.0461C582.753 72.2362 583.029 72.3364 583.316 72.2687C583.604 72.201 584.192 72.2438 584.624 72.3639C585.4 72.5799 585.401 72.5887 584.723 73.1766C583.537 74.2059 584.135 74.7728 586.635 74.9884C587.918 75.0991 589.096 75.3994 589.254 75.6557C589.412 75.912 589.698 76.1807 589.889 76.2527C590.49 76.4793 590.156 77.6895 589.518 77.596C589.196 77.5488 589.049 77.5838 589.192 77.6741C589.335 77.7642 589.176 78.3191 588.837 78.9072C588.392 79.6808 587.831 80.0853 586.808 80.3701C586.03 80.5866 585.481 80.8512 585.587 80.958C585.694 81.0649 584.323 81.4146 582.541 81.7352C579.95 82.2013 579.215 82.4496 578.876 82.9739C578.406 83.7021 575.188 84.7139 573.37 84.7054C572.676 84.7021 572.212 84.8628 572.132 85.1341C572.061 85.3727 571.649 85.6514 571.216 85.7534C570.211 85.9899 569.457 86.5191 569.561 86.9157C569.605 87.0855 569.859 87.1731 570.125 87.1104C570.392 87.0477 570.799 87.2022 571.03 87.4537C571.29 87.7374 572.71 87.8702 574.771 87.8036C578.832 87.6723 581.982 88.1915 581.902 88.979C581.871 89.2814 581.61 89.4943 581.322 89.452C581.033 89.4097 580.918 89.496 581.065 89.6436C581.213 89.7913 581.065 90.4893 580.738 91.1949C580.3 92.1392 579.95 92.4613 579.414 92.4153C579.01 92.3807 578.805 92.4734 578.955 92.6233C579.103 92.7721 578.706 93.0321 578.072 93.2012C577.438 93.3703 575.934 94.0245 574.73 94.6549L572.54 95.8012L573.5 96.4473C574.028 96.8027 574.599 97.0608 574.769 97.0208C574.939 96.9808 575.66 97.08 576.371 97.2412C577.61 97.5222 577.651 97.5721 577.364 98.4553C577.176 99.0356 577.21 99.4265 577.457 99.512C577.673 99.5867 577.794 99.8317 577.728 100.057C577.65 100.321 577.46 100.324 577.193 100.066C576.924 99.806 576.723 99.81 576.62 100.077C576.533 100.303 576.069 100.82 575.589 101.225L574.718 101.96L575.805 101.829C576.983 101.687 577.826 102.43 577.082 102.954C576.83 103.132 576.519 103.21 576.39 103.129C576.262 103.048 575.732 103.39 575.213 103.889C574.694 104.389 573.727 105.043 573.064 105.342C572.401 105.642 571.711 106.145 571.53 106.459C571.102 107.203 570.869 107.243 567.552 107.153C564.575 107.071 563.808 107.324 562.947 108.674C562.461 109.436 562.208 109.527 560.377 109.604C557.974 109.705 553.647 110.663 553.999 111.017C554.135 111.153 555.393 111.199 556.794 111.12C560.365 110.919 560.783 110.958 560.316 111.449C559.506 112.299 564.239 112.742 568.618 112.226C569.8 112.086 570.873 112.077 571 112.205C571.128 112.333 571.025 112.927 570.772 113.524C570.347 114.528 570.365 114.648 571.01 115.099C571.394 115.368 571.73 115.673 571.757 115.777C571.868 116.204 566.053 116.92 564.03 116.729C561.121 116.453 555.536 117.067 555.17 117.702C554.977 118.039 555.036 118.274 555.378 118.536C555.841 118.889 556.425 118.949 561.2 119.136C562.69 119.194 563.484 119.398 563.574 119.744C563.688 120.182 563.306 120.32 561.171 120.615C559.545 120.84 558.589 121.113 558.512 121.374C558.446 121.598 558.575 121.739 558.801 121.686C559.026 121.633 559.153 121.688 559.084 121.809C558.92 122.093 553.923 122.179 553.353 121.907C552.905 121.694 547.825 122.064 546.805 122.385C546.49 122.484 546.282 122.76 546.344 122.998C546.406 123.236 546.434 123.658 546.405 123.937C546.356 124.418 550.668 124.353 557.973 123.762C559.071 123.673 560.575 123.708 561.315 123.839C562.056 123.97 563.132 123.968 563.707 123.834C565.221 123.481 567.571 123.654 567.315 124.1C567.196 124.306 565.209 124.967 562.9 125.568C560.591 126.169 558.733 126.681 558.772 126.706C558.811 126.731 559.664 126.879 560.668 127.034C562.416 127.304 562.466 127.342 561.848 127.912C561.363 128.358 560.762 128.512 559.441 128.529C557.291 128.556 557.022 128.613 557.127 129.019C557.173 129.194 557.686 129.334 558.267 129.329C560.201 129.314 559.923 129.857 557.732 130.373C556.457 130.673 555.225 131.196 554.683 131.666C554.135 132.142 553.455 132.429 552.971 132.387C551.937 132.299 536.225 135.87 536.488 136.134C537.046 136.693 532.664 137.721 528.755 137.947C520.84 138.407 514.203 139.171 510.035 140.103C507.733 140.618 504.215 141.197 502.218 141.39C500.221 141.582 496.688 142.017 494.366 142.356C492.044 142.694 490.033 142.934 489.897 142.888C489.761 142.843 488.496 142.971 487.087 143.174C485.678 143.377 483.981 143.601 483.318 143.672C481.936 143.82 475.751 144.902 471.283 145.779C468.051 146.412 463.105 147.239 459.734 147.709C458.606 147.866 454.283 148.725 450.129 149.616C445.975 150.508 441.04 151.464 439.162 151.74C437.285 152.017 432.175 153.101 427.808 154.148C421.203 155.733 419.836 156.152 419.684 156.638C419.528 157.133 419.435 157.159 419.074 156.81C418.79 156.536 418.337 156.544 417.714 156.835C417.2 157.076 416.572 157.141 416.316 156.979C416.061 156.819 415.348 156.771 414.731 156.874C414.114 156.976 413.285 157.039 412.888 157.013C410.727 156.871 408.595 157.183 407.851 157.751C407.254 158.207 405.48 158.252 405.611 157.808C405.659 157.644 404.008 157.864 401.942 158.296C396.378 159.46 395.789 159.532 395.023 159.142C394.401 158.825 394.355 158.857 394.612 159.431C394.807 159.869 394.728 160.076 394.367 160.072C394.074 160.07 393.495 160.144 393.081 160.237C392.667 160.331 392.297 160.288 392.259 160.142C392.221 159.996 391.922 159.837 391.596 159.79C391.164 159.726 391.095 159.838 391.343 160.196C391.578 160.535 391.533 160.634 391.199 160.514C390.933 160.418 389.274 160.627 387.514 160.978C383.811 161.716 384.357 161.589 367.125 165.712C359.876 167.446 352.986 168.971 351.815 169.101C350.644 169.231 349.458 169.497 349.182 169.693C348.672 170.052 337.877 173.066 334.508 173.789C331.873 174.355 329.315 176.649 331.118 176.831C331.386 176.858 331.279 177.142 330.856 177.528C330.463 177.886 330.091 178.33 330.031 178.515C329.813 179.181 327.062 180.172 326.14 179.916C325.56 179.754 324.189 179.97 322.096 180.552C320.355 181.036 314.611 182.536 309.333 183.884C304.055 185.233 299.396 186.517 298.98 186.738C298.564 186.959 296.699 187.524 294.836 187.993C292.972 188.463 291.192 189.092 290.88 189.393C290.322 189.93 287.388 191.286 286.832 191.264C286.147 191.237 284.972 191.561 283.953 192.058C283.348 192.353 282.545 192.639 282.169 192.694C281.794 192.748 281.179 192.836 280.803 192.889C280.427 192.942 278.739 193.504 277.052 194.138C275.365 194.772 273.334 195.441 272.539 195.624C271.744 195.807 270.954 196.145 270.785 196.376C270.616 196.606 270.017 197.018 269.454 197.291C268.617 197.697 268.404 197.68 268.279 197.202C268.144 196.684 267.858 196.71 265.769 197.431C264.472 197.879 261.016 198.848 258.088 199.583C255.161 200.319 252.003 201.294 251.072 201.75C250.141 202.206 249.305 202.596 249.216 202.617C249.127 202.638 249.302 202.845 249.605 203.076C249.908 203.307 250.663 203.377 251.283 203.231C251.904 203.085 252.428 203.031 252.449 203.11C252.47 203.19 252.642 203.479 252.832 203.754C253.305 204.438 252.355 204.623 251.413 204.029C250.879 203.693 250.667 203.693 250.648 204.028C250.634 204.283 250.461 204.436 250.265 204.368C250.069 204.301 249.942 204.371 249.982 204.525C250.022 204.678 249.721 204.903 249.314 205.023C248.907 205.144 246.666 205.879 244.334 206.656C242.002 207.433 237.254 208.803 233.784 209.701C230.314 210.598 227.121 211.506 226.689 211.719C225.225 212.438 216.883 215.27 212.359 216.584C203.978 219.018 197.865 221.791 196.923 223.586C196.628 224.148 195.994 224.695 195.473 224.836C191.189 225.999 185.308 227.877 182.777 228.891C181.718 229.316 179.844 230.001 178.614 230.415C177.383 230.828 175.66 231.492 174.785 231.89C173.909 232.288 173.138 232.627 173.072 232.642C173.005 232.658 172.847 232.274 172.72 231.787ZM171.902 228.643C171.803 228.265 171.648 228.271 171.213 228.672C170.878 228.981 170.785 229.381 170.982 229.665C171.236 230.033 171.394 230.026 171.67 229.636C171.867 229.358 171.972 228.911 171.902 228.643ZM226.84 210.257C228.02 209.465 227.986 209.465 225.253 210.287C218.995 212.17 217.055 212.834 217.117 213.072C217.234 213.523 225.57 211.11 226.84 210.257ZM70.6174 242.596C70.5979 242.522 70.3566 242.513 70.081 242.578C69.8055 242.643 69.6193 242.847 69.6672 243.031C69.7151 243.215 69.9565 243.223 70.2035 243.049C70.4506 242.875 70.6368 242.671 70.6174 242.596ZM94.526 235.725C94.5918 235.502 94.2791 235.416 93.8075 235.527C93.3483 235.635 92.9202 235.901 92.8561 236.118C92.7904 236.34 93.1031 236.426 93.5746 236.315C94.0339 236.207 94.462 235.941 94.526 235.725ZM78.2014 237.69C78.1086 237.334 77.7 237.394 77.0349 237.863C76.2835 238.393 76.6165 238.756 77.4889 238.357C77.9245 238.158 78.2451 237.858 78.2014 237.69ZM267.168 193.156C268.222 192.559 268.345 192.396 267.748 192.39C266.8 192.382 256.294 195.344 250.731 197.19C249.219 197.691 261.257 195.213 263.683 194.524C264.863 194.188 266.431 193.573 267.168 193.156ZM278.468 189.367C278.812 189.191 278.12 189.289 276.93 189.586C274.09 190.293 273.044 190.876 274.918 190.708C275.68 190.639 276.65 190.381 277.073 190.135C277.496 189.889 278.124 189.544 278.468 189.367ZM65.3557 239.633C66.038 239.45 66.0288 239.433 65.1735 239.296C64.1649 239.133 63.4326 239.505 63.5875 240.1C63.6439 240.317 63.9026 240.343 64.1636 240.159C64.4241 239.975 64.9605 239.738 65.3557 239.633ZM283.411 187.899C283.476 187.785 282.855 187.824 282.031 187.984C281.206 188.144 280.473 188.473 280.402 188.715C280.31 189.025 280.72 189 281.782 188.631C282.612 188.342 283.345 188.012 283.411 187.899ZM543.517 122.349C543.589 122.105 543.026 122.114 542.038 122.373C540.621 122.745 540.563 122.795 541.513 122.82C543.075 122.861 543.387 122.788 543.517 122.349ZM27.4202 238.431C27.1531 238.388 26.8682 238.468 26.7871 238.609C26.706 238.75 26.9246 238.785 27.2727 238.687C27.6575 238.579 27.7153 238.478 27.4202 238.431ZM31.2469 237.047C31.8602 236.667 31.8783 236.603 31.3392 236.721C30.9704 236.802 30.4028 237.072 30.0779 237.322C29.3254 237.901 30.2034 237.694 31.2469 237.047ZM35.7637 236.128C36.0243 235.944 36.1646 235.514 36.0757 235.173C35.9379 234.643 35.7109 234.628 34.5423 235.069C33.0593 235.629 32.2111 236.453 33.4083 236.172C33.8016 236.079 34.2567 236.137 34.4198 236.3C34.7609 236.642 35.0958 236.599 35.7637 236.128ZM576.785 102.415C576.736 102.225 576.433 102.134 576.112 102.212C575.614 102.334 575.615 102.387 576.117 102.572C576.857 102.845 576.895 102.836 576.785 102.415ZM38.8113 214.11C38.5442 214.067 38.2594 214.147 38.1783 214.288C38.0972 214.429 38.3157 214.464 38.6639 214.366C39.0486 214.258 39.1065 214.157 38.8113 214.11ZM35.8143 213.745C35.6677 213.182 34.7223 213.337 33.627 214.104C32.4346 214.94 32.8456 215.233 34.4695 214.706C35.4562 214.386 35.8988 214.069 35.8143 213.745ZM42.0829 212.534C41.604 212.054 40.3726 212.193 40.5076 212.712C40.5834 213.003 40.977 213.117 41.4888 212.997C41.9589 212.886 42.2262 212.678 42.0829 212.534ZM39.4522 212.742C39.76 212.405 39.5448 212.364 38.6122 212.579C37.9225 212.738 37.3988 213.024 37.4483 213.214C37.5629 213.654 38.9086 213.338 39.4522 212.742ZM585.679 41.27C585.63 41.08 585.439 40.9598 585.256 41.0031C585.072 41.0463 584.962 41.2372 585.012 41.4273C585.061 41.6173 585.252 41.7375 585.435 41.6943C585.619 41.651 585.729 41.4601 585.679 41.27ZM586.422 34.2504C586.167 34.2085 585.792 34.297 585.587 34.4469C585.382 34.5968 585.591 34.631 586.05 34.523C586.509 34.4149 586.676 34.2922 586.422 34.2504ZM580.329 31.2672C579.894 31.2821 579.218 31.4413 578.826 31.6209C578.434 31.8006 578.79 31.7884 579.616 31.5938C580.443 31.3993 580.763 31.2523 580.329 31.2672ZM564.155 32.1127C564.117 31.9648 562.798 31.9511 561.223 32.0824C559.649 32.2136 557.972 32.2983 557.495 32.2706C556.957 32.2393 556.74 32.3316 556.922 32.5141C557.084 32.6757 558.589 32.6947 560.267 32.5563C561.946 32.4179 563.482 32.3186 563.682 32.3356C563.881 32.3526 564.085 32.3699 564.135 32.3741C564.185 32.3783 564.194 32.2607 564.155 32.1127ZM76.2082 143.573C76.7356 143.167 76.702 143.139 75.8938 143.306C75.396 143.409 74.9363 143.67 74.8723 143.887C74.7333 144.358 75.3878 144.204 76.2082 143.573ZM560.461 27.4511C560.418 27.2879 558.829 27.3319 556.929 27.5488C552.65 28.0375 551.901 28.2031 552.44 28.5425C552.666 28.685 554.538 28.5516 556.599 28.2461C558.66 27.9406 560.389 27.7036 560.442 27.7193C560.495 27.7351 560.503 27.6144 560.461 27.4511ZM55.8662 141.82C55.9196 141.639 55.7445 141.543 55.477 141.606C55.2095 141.669 55.0244 141.85 55.0657 142.008C55.1069 142.166 55.2821 142.263 55.4549 142.222C55.6278 142.181 55.8128 142 55.8662 141.82ZM100.384 130.664C100.117 130.62 99.8319 130.701 99.7508 130.841C99.6697 130.982 99.8883 131.018 100.236 130.92C100.621 130.812 100.679 130.711 100.384 130.664ZM48.4351 142.407C48.3856 142.217 48.0827 142.126 47.762 142.204C47.2636 142.326 47.2644 142.379 47.7671 142.564C48.5071 142.838 48.5448 142.829 48.4351 142.407ZM49.6307 141.554C49.6089 141.47 49.4408 141.437 49.2571 141.48C49.0734 141.523 48.966 141.723 49.0184 141.925C49.0708 142.126 49.2389 142.159 49.392 141.999C49.5451 141.838 49.6525 141.638 49.6307 141.554ZM68.0415 134.667C68.4661 134.426 69.8318 133.852 71.0764 133.39C72.3209 132.929 73.8224 132.263 74.413 131.911C75.0036 131.559 75.4903 131.284 75.4944 131.3C75.5289 131.432 77.6241 130.154 78.6297 129.387C80.1554 128.224 80.1126 127.616 78.5313 127.988C77.7149 128.18 77.3216 128.107 77.2274 127.745C77.089 127.213 78.5291 126.651 81.0579 126.25C82.1596 126.075 85.0887 124.754 85.6842 124.163C86.1291 123.722 84.3505 123.761 82.1422 124.241C80.7055 124.553 79.5501 125.083 78.2035 126.048C77.1554 126.799 75.9888 127.489 75.611 127.581C75.0641 127.714 75.0398 127.789 75.492 127.951C75.8042 128.063 76.1596 128.05 76.2817 127.922C76.4039 127.793 76.5421 127.836 76.5889 128.015C76.6694 128.325 75.9952 128.715 73.5622 129.769C72.9794 130.021 72.4783 130.465 72.4487 130.756C72.4048 131.189 72.2784 131.227 71.7557 130.968C71.2203 130.702 71.1715 130.731 71.4549 131.149C71.7025 131.513 71.5963 131.677 71.0597 131.758C70.6562 131.82 69.8641 132.128 69.2994 132.444C68.5875 132.842 68.0935 132.927 67.6877 132.72C67.3586 132.553 67.1415 132.571 67.1914 132.763C67.2906 133.144 65.0297 134.834 64.14 135.043C63.8247 135.117 63.622 135.391 63.6897 135.651C63.7812 136.002 64.2541 135.993 65.541 135.614C66.4916 135.334 67.6168 134.908 68.0415 134.667ZM78.5177 118.9C78.2552 118.873 77.9243 119.053 77.7825 119.3C77.6014 119.615 77.7435 119.629 78.2599 119.348C78.6797 119.119 78.7903 118.927 78.5177 118.9ZM481.569 22.5849C481.532 22.4424 481.037 22.4002 480.469 22.4909C479.878 22.5853 479.558 22.7782 479.722 22.9419C480.056 23.2769 481.669 22.9653 481.569 22.5849ZM78.5508 115.128L79.3788 114.905L78.5157 114.765C77.5406 114.607 76.1 115.245 76.2376 115.773C76.2878 115.966 76.64 115.949 77.0255 115.736C77.409 115.525 78.0954 115.251 78.5508 115.128ZM478.351 21.1112C478.309 20.9528 478.05 20.8762 477.775 20.9411C477.499 21.0059 477.308 21.1886 477.349 21.347C477.39 21.5054 477.649 21.582 477.925 21.5171C478.2 21.4523 478.392 21.2696 478.351 21.1112ZM479.763 20.8339C479.496 20.7908 479.211 20.8709 479.13 21.0118C479.049 21.1528 479.267 21.1881 479.615 21.0902C480 20.9821 480.058 20.8815 479.763 20.8339ZM84.1442 113.212C83.8771 113.169 83.5923 113.249 83.5112 113.39C83.4301 113.531 83.6486 113.567 83.9968 113.469C84.3815 113.361 84.4393 113.26 84.1442 113.212ZM46.5568 121.576C46.5073 121.386 46.3165 121.266 46.1328 121.309C45.9491 121.352 45.8393 121.543 45.8888 121.733C45.9383 121.923 46.129 122.043 46.3127 122C46.4964 121.957 46.6062 121.766 46.5568 121.576ZM55.0044 118.626C54.9036 118.239 54.3648 118.726 54.3113 119.253C54.2588 119.768 54.3133 119.778 54.6435 119.313C54.8607 119.007 55.0231 118.698 55.0044 118.626ZM58.3553 117.882C58.2811 117.597 58.1612 117.378 58.0891 117.395C58.0169 117.412 57.9321 117.679 57.9005 117.989C57.869 118.299 57.9888 118.519 58.1667 118.477C58.3447 118.435 58.4295 118.167 58.3553 117.882ZM492.529 3.15806C492.262 3.11494 491.977 3.19504 491.896 3.33594C491.815 3.4769 492.034 3.51218 492.382 3.41428C492.767 3.30618 492.825 3.20566 492.529 3.15806ZM183.197 68.5354C183.257 68.3335 183.146 68.113 182.951 68.0454C182.755 67.9777 182.57 68.175 182.538 68.4838C182.476 69.0926 183.02 69.1351 183.197 68.5354ZM63.2818 254.173C63.0277 253.981 62.9497 253.788 63.1085 253.744C63.2673 253.701 63.0721 253.563 62.6749 253.437C61.6558 253.115 62.3182 252.477 64.055 252.108C64.9621 251.915 65.2006 251.947 64.7891 252.205C64.2085 252.569 63.9632 253.56 64.4868 253.426C65.4627 253.177 66.0533 252.559 65.7679 252.085C65.4892 251.623 65.5301 251.618 66.0871 252.046C66.8441 252.628 69.4199 252.162 69.4638 251.435C69.486 251.065 69.6224 251.036 70.1264 251.291C70.9211 251.693 71.6559 252.951 71.0488 252.871C70.8123 252.839 70.6129 252.592 70.6058 252.322C70.5967 251.979 70.4523 252.049 70.1254 252.556C69.7521 253.134 69.0624 253.405 66.7009 253.902C64.823 254.296 63.5751 254.395 63.2818 254.173ZM58.4987 254.491C57.9798 254.311 57.9938 253.492 58.5179 253.369C58.8989 253.279 59.4874 254.176 59.227 254.45C59.1115 254.571 58.7838 254.589 58.4987 254.491ZM64.8413 250.047C64.3126 249.522 64.329 249.427 64.9848 249.224C65.3921 249.097 65.9442 248.915 66.2117 248.819C67.0765 248.509 67.3263 248.785 66.9136 249.595C66.3923 250.619 65.5927 250.793 64.8413 250.047ZM266.489 199.858C266.468 199.774 266.575 199.574 266.728 199.413C266.881 199.253 267.049 199.286 267.102 199.487C267.154 199.689 267.047 199.889 266.863 199.932C266.679 199.975 266.511 199.942 266.489 199.858ZM270.347 198.7C270.512 198.41 270.754 198.241 270.884 198.323C271.015 198.405 270.88 198.642 270.584 198.849C270.157 199.149 270.108 199.118 270.347 198.7ZM90.838 239.939C90.7946 239.772 90.939 239.382 91.159 239.072C91.4699 238.633 91.6721 238.579 92.0674 238.828C92.4627 239.077 92.4838 239.247 92.1625 239.592C91.6399 240.152 90.9412 240.335 90.838 239.939ZM467.087 148.039C467.037 147.849 467.213 147.643 467.478 147.581C467.743 147.518 468.093 147.601 468.256 147.764C468.419 147.928 468.243 148.134 467.864 148.223C467.486 148.312 467.136 148.23 467.087 148.039ZM461.313 149.009C461.211 148.615 462.098 148.364 462.426 148.693C462.556 148.823 462.377 149.02 462.029 149.131C461.682 149.242 461.36 149.187 461.313 149.009ZM129.953 226.405C129.441 225.665 129.868 225.439 131.176 225.756C131.858 225.921 132.272 226.115 132.096 226.187C130.745 226.738 130.22 226.791 129.953 226.405ZM418.543 157.631C418.493 157.441 418.519 157.27 418.6 157.25C418.681 157.231 418.881 157.349 419.044 157.513C419.207 157.676 419.181 157.847 418.987 157.893C418.792 157.939 418.592 157.821 418.543 157.631ZM413.65 158.465C413.443 158.258 413.34 157.974 413.421 157.834C413.639 157.454 414.083 157.832 414.053 158.371C414.031 158.749 413.952 158.768 413.65 158.465ZM414.893 158.247C414.135 158.122 414.222 157.6 414.997 157.625C415.39 157.638 415.748 157.786 415.792 157.954C415.877 158.284 415.623 158.367 414.893 158.247ZM574.561 118.832C574.073 118.525 574.108 118.083 574.629 117.96C574.905 117.895 575.191 118.076 575.265 118.361C575.406 118.9 575.049 119.139 574.561 118.832ZM159.521 214.268C159.392 214.139 159.574 213.941 159.925 213.829C160.277 213.716 160.515 213.791 160.455 213.995C160.321 214.447 159.84 214.588 159.521 214.268ZM162.377 212.966C162.408 212.658 162.678 212.336 162.976 212.251C163.274 212.165 164.176 211.866 164.98 211.585C166.035 211.218 166.328 211.206 166.033 211.544C165.694 211.93 165.706 211.993 166.097 211.905C166.358 211.847 166.503 211.918 166.42 212.064C166.336 212.209 165.379 212.598 164.294 212.927C162.65 213.426 162.33 213.433 162.377 212.966ZM25.8601 244.209C25.5055 243.853 26.0271 243.296 26.546 243.475C26.9817 243.626 26.8983 244.306 26.4306 244.416C26.2686 244.454 26.0119 244.361 25.8601 244.209ZM26.6787 234.476C26.6321 234.297 26.7179 234.021 26.8692 233.862C27.027 233.696 27.1191 233.822 27.0851 234.156C27.019 234.807 26.8081 234.973 26.6787 234.476ZM29.0816 233.722C29.0095 233.445 29.0995 233.27 29.2816 233.333C29.4636 233.396 29.5638 233.613 29.5042 233.815C29.3518 234.331 29.2333 234.304 29.0816 233.722ZM599.362 51.6206C599.038 51.5012 598.924 51.3681 599.108 51.3248C599.291 51.2816 599.706 51.3439 600.03 51.4634C600.353 51.5828 600.468 51.7159 600.284 51.7591C600.1 51.8023 599.685 51.74 599.362 51.6206ZM43.9472 155.122C43.9082 154.973 44.177 154.779 44.5443 154.693C44.9117 154.607 45.2503 154.682 45.2967 154.86C45.3431 155.038 45.0744 155.231 44.6995 155.289C44.3247 155.347 43.9861 155.272 43.9472 155.122ZM56.6121 146.755L55.6581 146.283L57.5852 145.538C58.6452 145.128 60.2989 144.599 61.2603 144.361C62.2216 144.123 62.9809 143.823 62.9474 143.694C62.8777 143.424 65.0065 143.492 65.4089 143.772C65.5551 143.874 65.1874 143.975 64.5917 143.997C63.925 144.021 63.1878 144.33 62.6737 144.799C62.2145 145.217 61.0536 145.761 60.094 146.006C59.1344 146.252 58.3819 146.578 58.4217 146.73C58.5507 147.226 57.5904 147.239 56.6121 146.755ZM52.4285 147.848C52.5095 147.707 52.7944 147.627 53.0615 147.67C53.3567 147.717 53.2988 147.818 52.9141 147.926C52.5659 148.024 52.3474 147.989 52.4285 147.848ZM45.1099 144.504C45.0006 144.143 45.0264 143.92 45.1673 144.009C45.3082 144.098 45.3976 144.393 45.3661 144.665C45.3312 144.966 45.2308 144.903 45.1099 144.504ZM53.4752 139.452C53.5278 139.274 53.1924 138.928 52.7297 138.684C51.9021 138.246 51.9175 138.215 53.6919 136.741C55.8289 134.967 56.0474 134.886 56.283 135.792C56.3939 136.218 56.2392 136.538 55.8799 136.626C55.4073 136.742 55.4016 136.806 55.8499 136.967C56.1541 137.076 56.6645 137.045 56.9841 136.899C57.3037 136.752 57.6065 136.791 57.6569 136.985C57.7074 137.179 57.253 137.424 56.6472 137.531C56.0414 137.638 55.2499 137.814 54.8883 137.923C54.3405 138.087 54.329 138.156 54.819 138.337C55.3216 138.523 55.3224 138.575 54.8241 138.697C54.5034 138.776 54.2815 138.996 54.3309 139.186C54.3804 139.376 54.1866 139.586 53.9002 139.654C53.6138 139.721 53.4226 139.631 53.4752 139.452ZM57.0197 135.658C56.628 135.523 56.6036 135.376 56.9027 134.954C57.3223 134.363 57.8585 134.667 57.6487 135.377C57.5739 135.63 57.2964 135.754 57.0197 135.658ZM41.6499 123.831C41.4869 123.668 41.579 123.481 41.8545 123.416C42.13 123.351 42.4888 123.432 42.6518 123.595C42.8148 123.759 42.7228 123.945 42.4472 124.01C42.1717 124.075 41.8129 123.995 41.6499 123.831ZM48.0874 120.674C48.4123 119.961 48.5894 119.853 48.7051 120.297C48.7493 120.467 48.5642 120.762 48.2939 120.953C47.8829 121.243 47.849 121.197 48.0874 120.674ZM518.657 4.0024C518.943 3.50514 520.999 2.68437 521.504 2.86575C521.795 2.97011 521.887 3.10873 521.709 3.17371C519.967 3.81006 518.546 4.19589 518.657 4.0024ZM516.519 4.05323C516.194 3.93631 516.375 3.78702 517.029 3.63298C517.588 3.50158 518.078 3.52366 518.12 3.68206C518.215 4.04989 517.178 4.29075 516.519 4.05323ZM507.817 5.63302C506.301 5.63834 502.768 6.21768 496.228 7.53357C493.988 7.98418 491.788 8.25056 491.339 8.12553C490.85 7.98944 489.322 8.22119 487.534 8.70279C485.89 9.14542 484.536 9.47214 484.525 9.42875C484.494 9.3085 486.174 7.83839 486.404 7.78408C486.516 7.75777 486.555 7.91364 486.491 8.13041C486.423 8.36039 486.8 8.42444 487.396 8.28415C487.958 8.15189 488.378 7.88815 488.328 7.69806C488.279 7.508 488.397 7.31501 488.592 7.26923C488.786 7.22345 488.883 7.40695 488.807 7.67701C488.705 8.04009 488.771 8.04734 489.059 7.70471C489.274 7.44987 489.755 7.18846 490.128 7.12383C490.501 7.05908 491.61 6.84144 492.593 6.64007C493.575 6.43865 494.34 6.40694 494.292 6.56959C494.244 6.73221 495.123 6.62478 496.247 6.33084C497.37 6.03662 498.59 5.87943 498.958 5.98082C499.404 6.10392 499.593 6.03947 499.527 5.78711C499.473 5.5791 499.641 5.48235 499.9 5.57211C500.159 5.66185 501.666 5.47557 503.248 5.1582C504.831 4.84075 506.13 4.59949 506.136 4.62202C506.142 4.64462 506.911 4.5365 507.846 4.38196C508.78 4.22739 509.591 4.12652 509.648 4.15783C509.745 4.21124 510.117 4.23495 510.729 4.22686C511.011 4.22315 509.704 5.59588 509.407 5.616C509.312 5.62235 508.596 5.63028 507.817 5.63302ZM493.841 7.08864C493.797 6.92233 493.47 6.85491 493.114 6.93883C492.757 7.02274 492.419 7.24661 492.363 7.4363C492.307 7.62604 492.635 7.69342 493.09 7.58613C493.546 7.47884 493.884 7.25498 493.841 7.08864ZM511.445 1.88478C511.28 1.71876 511.027 1.70529 510.885 1.8549C510.742 2.00451 510.585 1.9714 510.536 1.78133C510.362 1.11219 510.898 0.974752 511.469 1.54223C511.787 1.85786 511.979 2.13196 511.897 2.15138C511.814 2.17082 511.611 2.05077 511.445 1.88478ZM503.945 2.21949C503.498 1.938 503.081 1.79627 503.019 1.90444C502.957 2.01267 502.188 2.32554 501.31 2.5998C499.789 3.07488 497.683 2.81505 498.038 2.19632C498.323 1.70104 500.654 1.25264 501.273 1.57413C501.906 1.90332 502.85 1.69704 503.157 1.1621C503.416 0.711943 505.141 0.391392 505.479 0.730534C505.94 1.19217 505.772 2.49215 505.236 2.61841C504.973 2.68034 504.392 2.50095 503.945 2.21949ZM507.461 1.67158C507.256 1.46688 507.289 1.38769 507.541 1.47515C507.774 1.55577 508.017 1.4414 508.082 1.22108C508.258 0.626756 508.699 0.624521 508.853 1.21711C509.011 1.82591 507.958 2.16982 507.461 1.67158ZM116.317 90.9981C116.398 90.8571 116.683 90.777 116.95 90.8202C117.245 90.8678 117.187 90.9684 116.802 91.0765C116.454 91.1744 116.236 91.1391 116.317 90.9981ZM181.137 65.3272C181.087 65.1371 181.113 64.966 181.194 64.9469C181.275 64.9279 181.475 65.0459 181.638 65.2093C181.801 65.3726 181.775 65.5438 181.58 65.5895C181.386 65.6353 181.186 65.5173 181.137 65.3272ZM188.934 63.5292C188.288 63.2462 188.263 62.6268 188.899 62.6477C189.304 62.6611 189.51 62.463 189.456 62.1122C189.409 61.806 189.335 61.3162 189.291 61.0239C189.248 60.7316 189.482 60.4081 189.813 60.3051C190.144 60.202 190.518 60.0591 190.646 59.9875C190.773 59.9157 191.296 59.6256 191.807 59.3426C192.944 58.7134 193.477 58.0476 193.126 57.6957C192.981 57.5509 193.16 57.3625 193.523 57.2771C193.886 57.1917 194.31 57.2982 194.465 57.5139C194.661 57.7864 194.801 57.773 194.926 57.4703C195.245 56.6959 196.214 56.2496 196.871 56.5746C197.398 56.8354 197.437 56.8168 197.094 56.466C196.78 56.1443 196.835 56.0652 197.324 56.1368C197.678 56.1887 198.17 56.1834 198.418 56.125C198.666 56.0666 199.037 56.2925 199.241 56.6272C199.48 57.0182 199.812 57.127 200.171 56.9316C200.964 56.5003 200.653 55.6665 199.836 56.0324C199.191 56.3216 199.189 56.317 199.757 55.843C200.078 55.576 200.846 55.2268 201.464 55.0671C202.082 54.9073 203.468 54.4079 204.542 53.957C207.328 52.7886 214.426 50.2194 217.699 49.1951C219.231 48.7156 221.145 48.1024 221.952 47.8325C223.652 47.2638 227.024 46.2019 231.452 44.8409C233.167 44.3139 235.524 43.567 236.691 43.1814C239.495 42.2544 244.008 41.1724 244.698 41.2616C245.001 41.3007 245.918 41.3017 246.737 41.264C247.556 41.2262 248.255 41.3097 248.292 41.4496C248.328 41.5894 248.086 42.1758 247.755 42.7526C247.263 43.6064 246.837 43.8686 245.462 44.1629C244.457 44.3776 243.855 44.6555 243.976 44.8479C244.088 45.0257 245.34 44.9117 246.759 44.5945C248.986 44.0962 250.582 44.1952 250.206 44.8081C250.037 45.0823 245.666 46.3429 245.613 46.1327C245.586 46.0299 244.563 46.2332 243.338 46.5845C242.113 46.9359 240.212 47.2851 239.113 47.3601C238.014 47.4353 237.063 47.5874 236.999 47.6981C236.936 47.8087 236.248 48.0838 235.47 48.3093C234.693 48.5349 233.673 48.9373 233.203 49.2036C232.696 49.4916 232.14 49.5808 231.831 49.4235C231.546 49.278 229.85 49.4651 228.062 49.8392C225.849 50.3023 224.85 50.3844 224.93 50.0967C224.995 49.8642 224.849 49.9482 224.605 50.2833C224.301 50.7025 223.72 50.9223 222.745 50.9876C221.814 51.05 221.432 51.1869 221.631 51.3866C221.971 51.7269 221.929 51.7448 218.924 52.5413C217.739 52.8555 216.463 53.3145 216.088 53.5612C215.714 53.8079 215.375 53.8827 215.334 53.7273C215.294 53.572 214.885 53.5333 214.426 53.6414C213.966 53.7494 213.621 53.9545 213.658 54.0971C213.695 54.2396 213.491 54.4114 213.205 54.4788C212.918 54.5462 212.728 54.4516 212.783 54.2684C212.913 53.8257 209.631 55.2032 209.483 55.6528C209.214 56.4758 203.152 58.6722 202.98 58.0094C202.927 57.8071 202.725 57.679 202.53 57.7247C202.336 57.7705 202.301 57.9324 202.452 58.0845C202.886 58.5193 202.199 59.0116 201.591 58.7017C201.183 58.4938 201.031 58.5482 200.993 58.9152C200.961 59.232 200.446 59.4945 199.549 59.6514C198.782 59.7856 198.192 60.0406 198.238 60.2181C198.387 60.7897 196.573 60.8182 196.072 60.2522C195.806 59.9513 195.467 59.832 195.319 59.9873C195.171 60.1426 195.16 60.38 195.295 60.515C195.429 60.6499 195.342 60.8994 195.102 61.0692C194.861 61.2391 194.534 61.2482 194.376 61.0893C194.2 60.9133 193.79 61.0844 193.326 61.5276C192.453 62.3618 189.422 63.7431 188.934 63.5292ZM183.743 63.0849C183.585 62.4779 183.762 62.3413 184.173 62.7533C184.325 62.9054 184.322 63.1635 184.166 63.3268C184.011 63.4901 183.82 63.3816 183.743 63.0849ZM184.846 62.1917C184.988 61.9452 185.319 61.7651 185.581 61.7915C185.854 61.8189 185.743 62.0112 185.324 62.2397C184.807 62.5208 184.665 62.5065 184.846 62.1917ZM299.67 34.2364C299.235 34.2513 298.848 34.1448 298.811 33.9997C298.701 33.5768 300.212 33.465 300.472 33.8769C300.601 34.0827 300.652 34.2416 300.584 34.2302C300.516 34.2186 300.104 34.2215 299.67 34.2364ZM292.533 35.0745C293.345 34.4502 293.872 34.3261 293.368 34.878C293.141 35.1272 292.727 35.3755 292.448 35.4299C292.115 35.4951 292.144 35.3741 292.533 35.0745ZM294.565 34.6306C294.417 34.4824 294.618 34.3718 295.011 34.3848C295.846 34.4123 296.006 34.6239 295.315 34.7866C295.05 34.8489 294.712 34.7787 294.565 34.6306ZM251.365 43.9679C250.697 43.5448 250.926 43.4508 255.047 42.4535C257.464 41.8685 259.759 41.2443 260.147 41.066C260.535 40.8878 260.965 40.8541 261.101 40.9912C261.238 41.1283 261.801 41.0992 262.353 40.9266C263.844 40.4601 263.983 40.9616 262.502 41.469C261.803 41.709 261.27 41.7688 261.319 41.6024C261.474 41.0788 261.004 41.3702 260.622 42.0349C260.207 42.7566 258.823 43.1945 258.376 42.746C258.178 42.5482 257.89 42.6217 257.518 42.9646C256.886 43.5482 256.117 43.4337 256.309 42.7845C256.393 42.5006 256.304 42.4964 256.045 42.7718C255.831 43.0001 254.851 43.4641 253.867 43.8029C252.458 44.2877 251.926 44.3229 251.365 43.9679ZM278.249 38.0696C278.199 37.8795 278.225 37.7085 278.306 37.6894C278.387 37.6703 278.587 37.7884 278.75 37.9517C278.913 38.1151 278.887 38.2862 278.692 38.332C278.498 38.3778 278.298 38.2597 278.249 38.0696ZM264.709 40.5227C264.356 40.3922 264.279 40.2661 264.518 40.2066C264.736 40.152 265.047 40.2414 265.21 40.4048C265.578 40.7735 265.463 40.8007 264.709 40.5227ZM395.147 9.77319C395.244 9.44317 393.883 9.40232 393.695 9.72966C393.432 10.1857 391.966 10.6053 391.874 10.2507C391.817 10.0314 390.853 10.2022 389.248 10.716C387.281 11.3459 386.417 11.4631 385.396 11.2388C384.673 11.0798 384.353 10.9614 384.685 10.9757C385.017 10.99 385.301 10.8553 385.316 10.6767C385.331 10.498 385.555 10.2481 385.814 10.1215C386.074 9.9949 386.356 9.70976 386.442 9.4879C386.527 9.26604 386.688 9.42459 386.799 9.84046C386.99 10.555 387.045 10.5574 387.791 9.88371C388.499 9.2444 388.644 9.22194 389.199 9.66559C389.789 10.136 389.801 10.1329 389.46 9.60416C389.183 9.17401 389.286 9.0034 389.909 8.85664C390.354 8.75206 390.941 8.90261 391.215 9.19116C391.491 9.48235 391.667 9.52254 391.611 9.28148C391.504 8.8264 392.46 8.41969 392.578 8.87045C392.615 9.01301 393.779 8.85326 395.165 8.51544C396.551 8.17759 397.792 8.00918 397.924 8.14116C398.056 8.27311 398.485 8.30534 398.878 8.21278C399.45 8.07814 399.533 8.15055 399.288 8.57474C398.983 9.10567 395.004 10.2571 395.147 9.77319ZM400.626 8.47242C400.585 8.31399 400.662 8.14738 400.796 8.10211C400.93 8.05685 401.504 7.84156 402.071 7.62369C403.346 7.13378 403.971 7.61595 402.763 8.15736C401.568 8.69263 400.716 8.81831 400.626 8.47242ZM376.28 12.9799C376.23 12.7899 375.626 12.767 374.937 12.9291C374.248 13.0913 373.615 13.4055 373.529 13.6273C373.426 13.8962 373.342 13.9159 373.278 13.6864C373.158 13.2552 371.13 13.6237 371.243 14.0563C371.288 14.2304 371.166 14.3175 370.971 14.25C370.6 14.1215 367.577 14.4863 364.411 15.0419C363.385 15.2217 362.537 15.334 362.526 15.2913C362.466 15.0596 358.07 16.0903 357.85 16.388C357.455 16.9192 354.191 17.9933 354.095 17.6235C354.049 17.4478 353.786 17.3571 353.511 17.422C353.235 17.4868 353.049 17.6899 353.097 17.8734C353.151 18.0816 350.815 18.6991 346.879 19.5172C343.411 20.2379 340.212 20.9145 339.769 21.0208C339.327 21.1282 338.425 21.1887 337.767 21.1578C337.046 21.1241 336.602 21.2275 336.651 21.4171C336.733 21.7311 335.551 21.9552 335.149 21.7019C335.033 21.6288 333.508 21.9644 331.759 22.4477C329.652 23.0302 328.385 23.2272 328.002 23.0322C327.553 22.803 327.451 22.8431 327.543 23.2134C327.618 23.514 327.537 23.5773 327.322 23.3857C327.118 23.2037 325.176 23.4894 322.463 24.1006C319.977 24.6607 312.434 26.3208 305.701 27.7902C298.968 29.2595 290.335 31.1749 286.517 32.0467C282.699 32.9188 279.549 33.5346 279.518 33.4157C279.486 33.2968 278.634 33.3941 277.624 33.6318C276.614 33.8694 275.818 34.1806 275.856 34.3231C275.893 34.4657 275.764 34.6198 275.569 34.6656C275.375 34.7113 275.268 34.5714 275.332 34.3546C275.396 34.1378 275.214 34.0156 274.928 34.083C274.642 34.1505 274.367 34.0502 274.317 33.8601C274.268 33.67 274.068 33.5519 273.874 33.5977C273.679 33.6435 273.653 33.8146 273.816 33.978C273.991 34.1534 273.66 34.3793 273.006 34.5298C272.169 34.7223 272 34.6745 272.313 34.3317C272.619 33.9972 272.611 33.9046 272.284 33.9774C271.943 34.053 271.926 33.9297 272.208 33.4396C272.409 33.0897 272.885 32.73 273.266 32.6405C273.646 32.5509 273.914 32.3117 273.861 32.1088C273.804 31.8899 274.079 31.7668 274.536 31.806C275.054 31.8504 275.199 31.7644 274.978 31.5432C274.798 31.3623 274.739 31.1934 274.848 31.1678C274.956 31.1423 275.243 31.4143 275.484 31.7723L275.923 32.4234L276.617 31.4992C277.093 30.8657 277.416 30.68 277.645 30.909C277.881 31.1458 278.024 31.0873 278.136 30.7081C278.264 30.2735 280.534 29.6487 290.25 27.3732C296.825 25.8333 304.936 24.0362 308.275 23.3801C311.613 22.724 317.148 21.623 320.575 20.9334C332.949 18.4433 336.148 17.8439 336.469 17.955C337.186 18.2033 339.968 17.9185 340.307 17.562C340.517 17.3423 340.824 17.3308 341.036 17.5347C341.31 17.7979 341.453 17.7362 341.597 17.2916C341.704 16.9639 341.834 16.8507 341.887 17.0401C341.947 17.2574 344.042 16.8833 347.565 16.0261C353.133 14.6713 362.812 12.9855 362.908 13.3536C362.936 13.4604 364.119 13.2561 365.537 12.8997C367.967 12.289 373.709 11.4394 374.79 11.5308C375.189 11.5645 375.23 11.6921 375.001 12.1933C374.771 12.6985 374.798 12.7655 375.144 12.5529C375.377 12.4092 375.963 12.0976 376.446 11.8605C376.986 11.5948 377.206 11.2848 377.02 11.0529C376.853 10.8458 376.955 10.8787 377.247 11.1258C377.676 11.4892 378.119 11.4418 379.564 10.8782C380.58 10.4819 381.64 10.2617 382.021 10.3678C382.389 10.4703 383.119 10.4758 383.643 10.38C384.521 10.2194 384.536 10.233 383.831 10.5524C383.239 10.8207 383.191 10.9439 383.619 11.0971C384.223 11.3138 383.8 11.4583 379.114 12.6359C377.48 13.0465 376.333 13.1858 376.28 12.9799ZM278.402 32.7174C278.223 32.4581 277.964 32.3637 277.827 32.5076C277.434 32.9202 277.697 33.4313 278.238 33.3042C278.536 33.234 278.6 33.0037 278.402 32.7174ZM259.231 38.4834C259.401 37.7379 259.361 37.6672 258.937 37.9662C258.515 38.2644 258.474 38.1937 258.642 37.4569L258.838 36.6013L259.371 37.2936C259.982 38.0879 260.706 38.0541 260.79 37.2273C260.821 36.9173 260.726 36.692 260.579 36.7267C260.432 36.7613 260.25 36.5545 260.175 36.2671C260.065 35.8421 260.352 35.7148 261.711 35.586C262.853 35.4778 263.351 35.3041 263.282 35.0376C263.225 34.8209 263.708 34.5231 264.369 34.3677C265.148 34.1843 265.513 34.2372 265.429 34.5214C265.338 34.8296 265.475 34.7951 265.901 34.402C266.399 33.9425 266.491 33.9458 266.442 34.4213C266.41 34.7361 266.25 35.0252 266.086 35.0638C265.922 35.1025 265.828 35.2896 265.878 35.4796C266.065 36.2001 266.56 35.6416 266.7 34.5526C266.862 33.2825 266.873 33.2734 267.83 33.5399C268.314 33.6745 268.539 34.0089 268.587 34.661C268.624 35.1721 268.773 35.514 268.92 35.4208C269.066 35.3276 269.3 35.3855 269.44 35.5497C269.591 35.7263 268.84 36.075 267.6 36.4035C265.685 36.9111 265.456 36.895 264.925 36.2162C264.353 35.4844 263.026 35.4167 263.211 36.1289C263.264 36.3302 263.43 36.3649 263.582 36.206C263.737 36.043 263.832 36.1611 263.8 36.4766C263.767 36.8035 263.501 37.0006 263.16 36.9506C262.782 36.8951 262.696 36.9838 262.916 37.204C263.302 37.5907 262.278 38.1841 260.952 38.3426C260.479 38.3992 259.854 38.6483 259.563 38.8961C259.088 39.3 259.053 39.2571 259.231 38.4834ZM268.029 35.0344C268.083 34.8537 267.914 34.7559 267.655 34.8169C267.395 34.8779 267.294 35.0393 267.43 35.1754C267.566 35.3115 267.734 35.4094 267.805 35.3929C267.875 35.3764 267.976 35.215 268.029 35.0344ZM254.749 39.6077C254.604 39.4629 254.765 39.1929 255.105 39.0077C255.517 38.7834 255.608 38.5032 255.376 38.1686C255.185 37.8923 255.17 37.633 255.343 37.5923C255.801 37.4845 256.021 38.6309 255.662 39.2551C255.297 39.8883 255.104 39.9632 254.749 39.6077ZM256.547 38.1648C256.575 37.8892 256.641 37.6536 256.693 37.6413C256.746 37.6289 256.919 37.8081 257.079 38.0394C257.239 38.2707 257.174 38.5063 256.933 38.5629C256.693 38.6195 256.519 38.4404 256.547 38.1648ZM257.583 36.8934C257.867 36.5304 258.427 36.151 258.828 36.0502C259.621 35.8505 260.265 36.2554 259.849 36.692C259.707 36.8416 259.486 36.7989 259.359 36.5968C259.185 36.3209 258.976 36.3695 258.516 36.7918C257.638 37.602 256.972 37.6748 257.583 36.8934ZM253.132 37.8909C253.214 37.75 253.498 37.6699 253.765 37.713C254.061 37.7606 254.003 37.8612 253.618 37.9693C253.27 38.0671 253.051 38.0319 253.132 37.8909ZM270.708 33.6093C270.205 33.4238 270.204 33.3714 270.702 33.2493C271.023 33.1705 271.326 33.262 271.376 33.4521C271.485 33.8736 271.448 33.8824 270.708 33.6093ZM268.777 33.505C268.506 33.113 268.584 33.0633 269.2 33.2349C270.086 33.4814 270.227 33.7224 269.574 33.876C269.318 33.9362 268.96 33.7693 268.777 33.505Z" fill="#E7B7A0" fill-opacity="0.3"/>
</svg>
