<svg width="54" height="55" viewBox="0 0 54 55" fill="none" xmlns="http://www.w3.org/2000/svg">
<path d="M29.5312 23.0669C30.4619 23.0669 31.2188 23.8237 31.2188 24.7544H32.9062C32.9062 23.1859 31.8263 21.8764 30.375 21.4992V19.6919H28.6875V21.4992C27.2362 21.8764 26.1562 23.1859 26.1562 24.7544C26.1562 26.6157 27.6699 28.1294 29.5312 28.1294C30.4619 28.1294 31.2188 28.8862 31.2188 29.8169C31.2188 30.7476 30.4619 31.5044 29.5312 31.5044C28.6006 31.5044 27.8438 30.7476 27.8438 29.8169H26.1562C26.1562 31.3854 27.2362 32.6949 28.6875 33.0721V34.8794H30.375V33.0721C31.8263 32.6949 32.9062 31.3854 32.9062 29.8169C32.9062 27.9556 31.3926 26.4419 29.5312 26.4419C28.6006 26.4419 27.8438 25.6851 27.8438 24.7544C27.8438 23.8237 28.6006 23.0669 29.5312 23.0669Z" fill="black"/>
<path d="M29.8027 1.12939C18.1716 1.12939 8.70893 10.5921 8.70893 22.2231V38.2544H3.00012L12.0839 53.3938L21.1677 38.2544H15.4589V22.2231C15.4589 14.3138 21.8934 7.87939 29.8027 7.87939C37.712 7.87939 44.1464 14.3138 44.1464 22.2231V36.5669C44.1464 38.4282 45.6601 39.9419 47.5214 39.9419C49.3827 39.9419 50.8964 38.4282 50.8964 36.5669V22.2231C50.8964 10.5921 41.4338 1.12939 29.8027 1.12939ZM49.2089 36.5669C49.2089 37.4976 48.4521 38.2544 47.5214 38.2544C46.5908 38.2544 45.8339 37.4976 45.8339 36.5669V22.2231C45.8339 13.3832 38.6427 6.19189 29.8027 6.19189C20.9627 6.19189 13.7714 13.3832 13.7714 22.2231V39.9419H18.1876L12.0839 50.115L5.98025 39.9419H10.3964V22.2231C10.3964 11.5219 19.1022 2.81689 29.8027 2.81689C40.5031 2.81689 49.2089 11.5219 49.2089 22.2231V36.5669Z" fill="black"/>
<path d="M47.25 48.3794C45.8544 48.3794 44.7188 49.5151 44.7188 50.9106C44.7188 52.3062 45.8544 53.4419 47.25 53.4419C48.6456 53.4419 49.7812 52.3062 49.7812 50.9106C49.7812 49.5151 48.6456 48.3794 47.25 48.3794ZM47.25 51.7544C46.7851 51.7544 46.4062 51.3764 46.4062 50.9106C46.4062 50.4449 46.7851 50.0669 47.25 50.0669C47.7149 50.0669 48.0938 50.4449 48.0938 50.9106C48.0938 51.3764 47.7149 51.7544 47.25 51.7544Z" fill="black"/>
<path d="M47.25 41.6294C45.8544 41.6294 44.7188 42.7651 44.7188 44.1606C44.7188 45.5562 45.8544 46.6919 47.25 46.6919C48.6456 46.6919 49.7812 45.5562 49.7812 44.1606C49.7812 42.7651 48.6456 41.6294 47.25 41.6294ZM47.25 45.0044C46.7851 45.0044 46.4062 44.6264 46.4062 44.1606C46.4062 43.6949 46.7851 43.3169 47.25 43.3169C47.7149 43.3169 48.0938 43.6949 48.0938 44.1606C48.0938 44.6264 47.7149 45.0044 47.25 45.0044Z" fill="black"/>
<path d="M35.4375 26.4419H37.125V28.1294H35.4375V26.4419Z" fill="black"/>
<path d="M21.9375 26.4419H23.625V28.1294H21.9375V26.4419Z" fill="black"/>
<path d="M29.5312 16.3169C23.4832 16.3169 18.5625 21.2376 18.5625 27.2856C18.5625 33.3336 23.4832 38.2544 29.5312 38.2544C35.5793 38.2544 40.5 33.3336 40.5 27.2856C40.5 21.2376 35.5793 16.3169 29.5312 16.3169ZM29.5312 36.5669C24.4139 36.5669 20.25 32.403 20.25 27.2856C20.25 22.1683 24.4139 18.0044 29.5312 18.0044C34.6486 18.0044 38.8125 22.1683 38.8125 27.2856C38.8125 32.403 34.6486 36.5669 29.5312 36.5669Z" fill="black"/>
</svg>
