<svg width="54" height="55" viewBox="0 0 54 55" fill="none" xmlns="http://www.w3.org/2000/svg">
<g clip-path="url(#clip0)">
<path d="M53.0473 29.4799C52.0218 28.1752 50.3944 27.5858 48.8385 27.8319C47.42 26.2463 45.0536 25.8755 43.2114 26.9892L42.8979 27.1711C41.4632 25.8721 39.2985 25.63 37.5985 26.656L28.3493 32.0202L25.2121 31.6281L29.592 28.4899C30.7572 27.6558 31.453 26.3014 31.453 24.8672C31.453 24.57 31.4228 24.2704 31.3631 23.9761C30.8777 21.5974 28.624 20.0604 26.2327 20.4756L25.2866 20.6401C21.4269 21.3114 17.8259 22.7663 14.5834 24.9644C14.2217 25.2095 14.1273 25.7014 14.3724 26.0631C14.6175 26.4247 15.1093 26.5191 15.4711 26.274C18.5268 24.2025 21.9204 22.8314 25.5578 22.1988L26.5037 22.0343C28.0463 21.7661 29.5 22.758 29.8128 24.2914C29.8514 24.4816 29.8709 24.6753 29.8709 24.8673C29.8709 25.7923 29.4225 26.6658 28.6709 27.2037L22.6476 31.5195C22.3829 31.7091 22.2615 32.0417 22.3416 32.3572C22.4218 32.6728 22.6872 32.907 23.0102 32.9474L39.1585 34.965C39.3354 34.9873 39.5144 34.9489 39.6666 34.8565L48.0482 29.774C49.2905 29.0206 50.9049 29.3146 51.8031 30.4573C52.2053 30.9695 52.4179 31.584 52.4179 32.2343C52.4179 32.9485 52.1543 33.6337 51.6757 34.1637L44.0304 42.6318C43.3028 43.4375 42.3089 43.957 41.2322 44.0943L18.5446 46.9828L17.8669 45.8048L9.31785 30.943L12.9727 28.1354C13.3191 27.8693 13.3842 27.3727 13.1181 27.0262C12.8521 26.6799 12.3553 26.6147 12.0089 26.8808L7.83359 30.0882L0.36505 34.8622C0.00909375 35.0898 -0.105234 35.5568 0.105492 35.9231L9.94043 53.0204C10.0482 53.2078 10.228 53.3429 10.438 53.3943C10.5 53.4095 10.5632 53.417 10.6261 53.417C10.7757 53.417 10.9238 53.3745 11.0522 53.2924L18.3993 48.5961L41.4323 45.6635C42.8841 45.4784 44.2237 44.7781 45.2047 43.6918L52.85 35.2239C53.5916 34.4027 54 33.3408 54 32.2341C54 31.2405 53.6617 30.2625 53.0473 29.4799ZM38.3986 28.0209C38.403 28.0184 38.4073 28.0158 38.4117 28.0132C39.3549 27.4417 40.5208 27.4761 41.4183 28.0293L33.4408 32.6563L30.9439 32.3444L38.3986 28.0209ZM39.0816 33.3611L36.0351 32.9804L44.0116 28.354C44.0162 28.3513 44.0207 28.3487 44.0252 28.3459C45.022 27.7409 46.2579 27.8108 47.1731 28.4544L39.0816 33.3611ZM10.8984 51.5131L1.85321 35.7885L8.01437 31.8503L16.5507 46.6894L17.06 47.5747L10.8984 51.5131Z" fill="black"/>
<path d="M12.2717 44.4001C10.9459 44.4001 9.86731 45.4788 9.86731 46.8045C9.86731 48.1303 10.9459 49.2089 12.2717 49.2089C13.5974 49.2089 14.676 48.1303 14.676 46.8045C14.676 45.4788 13.5974 44.4001 12.2717 44.4001ZM12.2717 47.6269C11.8183 47.6269 11.4493 47.2579 11.4493 46.8045C11.4493 46.3511 11.8183 45.9822 12.2717 45.9822C12.7251 45.9822 13.094 46.3511 13.094 46.8045C13.094 47.2579 12.7251 47.6269 12.2717 47.6269Z" fill="black"/>
<path d="M24.3295 12.7344C24.6679 13.064 24.8221 13.5385 24.742 14.0043L24.3401 16.3486C24.1444 17.4886 24.6039 18.6191 25.5395 19.2989C26.0682 19.683 26.6866 19.8781 27.3095 19.8781C27.7888 19.8781 28.2708 19.7624 28.716 19.5284L30.8235 18.4213C31.2405 18.2013 31.7385 18.2011 32.1568 18.4219L34.2627 19.5282C35.2862 20.0664 36.503 19.9786 37.4383 19.2995C38.3741 18.62 38.8341 17.4894 38.6389 16.3488L38.237 14.0036C38.157 13.5385 38.3109 13.0638 38.6485 12.7343L40.3533 11.0739C41.1815 10.2662 41.4737 9.08129 41.1161 7.98146C40.7586 6.88205 39.8258 6.09599 38.6821 5.92999L37.8921 5.81503C37.4593 5.75206 37.0583 6.05159 36.9954 6.48391C36.9326 6.91622 37.232 7.31764 37.6643 7.3806L38.4547 7.49556C39.0066 7.57562 39.4391 7.94012 39.6117 8.47062C39.7843 9.00155 39.6487 9.55126 39.2492 9.94086L37.5442 11.6015C36.8333 12.2952 36.5094 13.2936 36.6779 14.2714L37.0797 16.6158C37.174 17.1665 36.9605 17.6912 36.5088 18.0193C36.0575 18.3471 35.4932 18.3877 34.9989 18.1278L32.894 17.022C32.0147 16.5581 30.9647 16.558 30.0866 17.0214L27.98 18.128C27.4856 18.3878 26.9209 18.3472 26.4694 18.019C26.0179 17.691 25.8049 17.1666 25.8994 16.6161L26.3011 14.2721C26.4697 13.2931 26.1453 12.2945 25.4334 11.6011L23.7303 9.94128C23.3305 9.55136 23.1948 9.00155 23.3675 8.47073C23.54 7.94022 23.9726 7.57572 24.5249 7.49556L26.88 7.15279C27.863 7.00978 28.7118 6.39278 29.1502 5.50315L30.2043 3.36868C30.4506 2.86854 30.9309 2.56996 31.4891 2.56996C32.0474 2.56996 32.5282 2.86876 32.7753 3.36952L33.8288 5.50294C33.9367 5.72158 34.0704 5.92598 34.2259 6.11034C34.5076 6.44425 35.0067 6.48633 35.3406 6.20463C35.6745 5.92292 35.7167 5.42384 35.4349 5.08993C35.3619 5.00344 35.2989 4.90694 35.2475 4.80274L34.1939 2.66921C33.6819 1.63213 32.6456 0.988037 31.4891 0.988037C30.3319 0.988037 29.2958 1.63256 28.7854 2.6691L27.7315 4.80326C27.5231 5.22619 27.1196 5.51929 26.6522 5.58732L24.2975 5.93009C23.1534 6.0961 22.2206 6.88216 21.8631 7.98156C21.5054 9.08139 21.7977 10.2663 22.626 11.0742L24.3295 12.7344Z" fill="black"/>
<path d="M14.9171 4.94938L16.9873 5.96241C17.2979 6.11439 17.6287 6.18663 17.9556 6.18663C18.7256 6.18663 19.4735 5.78533 19.8808 5.07985L19.987 4.8958C20.5672 3.8909 20.2675 2.59627 19.3045 1.94869L17.3923 0.662497C16.8845 0.321095 16.2515 0.204341 15.6554 0.342294C15.0593 0.480353 14.542 0.86331 14.236 1.39329L13.9721 1.85039C13.6663 2.38027 13.5931 3.01972 13.7716 3.60497C13.9501 4.19043 14.3675 4.68033 14.9171 4.94938ZM15.3422 2.64151L15.6061 2.18441C15.6949 2.03053 15.8391 1.92369 16.0123 1.88361C16.0606 1.87243 16.1091 1.86695 16.1573 1.86695C16.2817 1.86695 16.4031 1.90376 16.5093 1.97527L18.4217 3.26146C18.6972 3.44677 18.7831 3.81728 18.6171 4.10489L18.5109 4.28894C18.3448 4.57655 17.9811 4.6875 17.6828 4.54153L15.6127 3.52851C15.4531 3.45035 15.3367 3.31377 15.2849 3.14386C15.2331 2.97395 15.2533 2.79539 15.3422 2.64151Z" fill="black"/>
<path d="M48.0614 17.8758L45.9913 16.8628C44.9489 16.353 43.678 16.7405 43.0978 17.7453L42.9916 17.9292C42.9916 17.9292 42.9916 17.9293 42.9915 17.9293C42.4115 18.9342 42.7112 20.2287 43.674 20.8763L45.5864 22.1626C45.9543 22.4101 46.388 22.5395 46.8257 22.5395C46.9922 22.5395 47.1591 22.5208 47.3232 22.4827C47.9193 22.3447 48.4367 21.9616 48.7426 21.4317L49.0065 20.9746C49.3125 20.4447 49.3856 19.8052 49.207 19.2199C49.0286 18.6347 48.611 18.1448 48.0614 17.8758ZM47.6364 20.1836L47.3725 20.6407C47.2837 20.7946 47.1394 20.9014 46.9663 20.9415C46.7934 20.9815 46.6168 20.949 46.4693 20.8499L44.5569 19.5636C44.2814 19.3782 44.1956 19.0078 44.3615 18.7202L44.4678 18.5362C44.6339 18.2486 44.9975 18.1376 45.2958 18.2836L47.366 19.2966C47.5255 19.3747 47.642 19.5112 47.6938 19.6812C47.7456 19.8514 47.7253 20.0297 47.6364 20.1836Z" fill="black"/>
<path d="M12.1845 13.2962C12.5951 13.6796 13.1398 13.8925 13.6986 13.8925C13.7485 13.8925 13.7987 13.8908 13.8487 13.8874L16.1479 13.7296C17.3057 13.6503 18.2126 12.679 18.2126 11.5185V11.3061C18.2126 10.1458 17.3056 9.17449 16.1479 9.09508L13.8486 8.9374C13.2378 8.8949 12.6315 9.111 12.1843 9.52855C11.7371 9.9461 11.4806 10.5365 11.4806 11.1483V11.6762C11.4808 12.2882 11.7373 12.8787 12.1845 13.2962ZM13.0628 11.1484C13.0628 10.9707 13.1343 10.8062 13.2642 10.6849C13.383 10.574 13.5348 10.5142 13.6956 10.5142C13.7105 10.5142 13.7255 10.5147 13.7405 10.5157L16.0398 10.6734C16.3711 10.6961 16.6306 10.9741 16.6306 11.3062V11.5186C16.6306 11.8507 16.3712 12.1287 16.0398 12.1513L13.7405 12.3091C13.5625 12.3211 13.394 12.2611 13.2642 12.14C13.1343 12.0187 13.0628 11.8541 13.0628 11.6764V11.1484Z" fill="black"/>
<path d="M49.1301 8.93753L46.8308 9.09521C45.6731 9.17463 44.7662 10.1459 44.7662 11.3063V11.5187C44.7662 12.6791 45.6732 13.6503 46.8308 13.7297L49.1301 13.8875C49.1802 13.891 49.2303 13.8927 49.2802 13.8927C49.839 13.8927 50.3837 13.6796 50.7943 13.2963C51.2415 12.8788 51.498 12.2884 51.498 11.6766V11.1487C51.498 10.5369 51.2415 9.94645 50.7943 9.5289C50.3471 9.11114 49.7409 8.89556 49.1301 8.93753ZM49.7146 10.6849C49.8445 10.8062 49.916 10.9708 49.916 11.1485V11.6763C49.916 11.8541 49.8445 12.0186 49.7146 12.1399C49.5848 12.2612 49.416 12.3216 49.2383 12.3091L46.9389 12.1513C46.6076 12.1286 46.3482 11.8506 46.3482 11.5186V11.3062C46.3482 10.974 46.6076 10.6961 46.939 10.6733L49.2383 10.5157C49.2534 10.5146 49.2683 10.5141 49.2831 10.5141C49.444 10.5143 49.5958 10.574 49.7146 10.6849Z" fill="black"/>
<path d="M16.9876 16.8626L14.9175 17.8756C14.368 18.1446 13.9504 18.6345 13.7719 19.2197C13.5934 19.805 13.6664 20.4445 13.9724 20.9744L14.2363 21.4316C14.5423 21.9615 15.0596 22.3446 15.6557 22.4826C15.82 22.5206 15.9869 22.5394 16.1532 22.5394C16.591 22.5394 17.0247 22.41 17.3925 22.1625L19.305 20.8762C20.2679 20.2287 20.5676 18.9341 19.9873 17.929L19.8811 17.7451V17.7452C19.3008 16.7403 18.0301 16.3527 16.9876 16.8626ZM18.422 19.5636L16.5095 20.8499C16.3621 20.9489 16.1855 20.9814 16.0125 20.9415C15.8394 20.9014 15.6952 20.7946 15.6064 20.6408L15.3424 20.1836C15.2536 20.0297 15.2332 19.8514 15.285 19.6815C15.3369 19.5116 15.4532 19.375 15.6128 19.2969L17.683 18.2839C17.7718 18.2404 17.8665 18.2198 17.9599 18.2198C18.1803 18.2198 18.3943 18.3346 18.5109 18.5365V18.5366L18.6171 18.7204C18.7833 19.0077 18.6975 19.3783 18.422 19.5636Z" fill="black"/>
<path d="M43.0979 5.07988C43.5052 5.78546 44.253 6.18677 45.0231 6.18667C45.35 6.18667 45.6808 6.11432 45.9915 5.96244L48.0616 4.94931C48.6112 4.68036 49.0287 4.19046 49.2072 3.60511C49.3856 3.01986 49.3126 2.38041 49.0067 1.85053L48.7427 1.39333C48.4367 0.863452 47.9194 0.48039 47.3233 0.342331C46.7271 0.204378 46.0942 0.320921 45.5865 0.662429L43.674 1.94872C42.7112 2.59641 42.4114 3.89093 42.9916 4.89584L43.0979 5.07988ZM44.5571 3.26149L46.4695 1.9752C46.5758 1.90369 46.6971 1.86688 46.8215 1.86688C46.8697 1.86688 46.9182 1.87237 46.9665 1.88355C47.1396 1.92362 47.2839 2.03046 47.3727 2.18424L47.6367 2.64144C47.7255 2.79532 47.7458 2.97356 47.694 3.14358C47.6423 3.3136 47.5258 3.45018 47.3662 3.52822L45.2962 4.54125C44.9981 4.68732 44.6343 4.57637 44.4681 4.28865L44.3619 4.10472C44.1957 3.81731 44.2815 3.4468 44.5571 3.26149Z" fill="black"/>
</g>
<defs>
<clipPath id="clip0">
<rect width="54" height="54" fill="white" transform="translate(0 0.285645)"/>
</clipPath>
</defs>
</svg>
